FacadeStencil-Medium.ufo
<glyph name="exclam" format="2">
  <advance width="480.0"/>
  <unicode hex="0021"/>
  <outline>
    <contour>
      <point x="183.0" y="315.0" type="line"/>
      <point x="297.0" y="315.0" type="line"/>
      <point x="318.0" y="900.0" type="line"/>
      <point x="162.0" y="900.0" type="line"/>
    </contour>
    <contour>
      <point x="240.0" y="-16.0" type="curve" smooth="yes"/>
      <point x="291.0" y="-16.0"/>
      <point x="330.0" y="23.5"/>
      <point x="330.0" y="74.0" type="curve" smooth="yes"/>
      <point x="330.0" y="124.5"/>
      <point x="291.0" y="164.0"/>
      <point x="240.0" y="164.0" type="curve" smooth="yes"/>
      <point x="189.5" y="164.0"/>
      <point x="150.0" y="124.5"/>
      <point x="150.0" y="74.0" type="curve" smooth="yes"/>
      <point x="150.0" y="23.5"/>
      <point x="189.5" y="-16.0"/>
    </contour>
  </outline>
</glyph>
<glyph name="numbersign" format="2">
  <advance width="750.0"/>
  <unicode hex="0023"/>
  <outline>
    <contour>
      <point x="156.5" y="384.0" type="line"/>
      <point x="277.0" y="384.0" type="line"/>
      <point x="363.0" y="900.0" type="line"/>
      <point x="243.0" y="900.0" type="line"/>
      <point x="206.0" y="678.0" type="line"/>
      <point x="96.0" y="678.0" type="line"/>
      <point x="78.0" y="570.0" type="line"/>
      <point x="188.0" y="570.0" type="line"/>
    </contour>
    <contour>
      <point x="368.0" y="570.0" type="line"/>
      <point x="707.0" y="570.0" type="line"/>
      <point x="725.0" y="678.0" type="line"/>
      <point x="618.0" y="678.0" type="line"/>
      <point x="655.0" y="900.0" type="line"/>
      <point x="535.0" y="900.0" type="line"/>
      <point x="498.0" y="678.0" type="line"/>
      <point x="385.5" y="678.0" type="line"/>
    </contour>
    <contour>
      <point x="93.0" y="0.0" type="line"/>
      <point x="213.0" y="0.0" type="line"/>
      <point x="250.0" y="222.0" type="line"/>
      <point x="362.5" y="222.0" type="line"/>
      <point x="380.0" y="330.0" type="line"/>
      <point x="41.0" y="330.0" type="line"/>
      <point x="23.0" y="222.0" type="line"/>
      <point x="130.0" y="222.0" type="line"/>
    </contour>
    <contour>
      <point x="385.0" y="0.0" type="line"/>
      <point x="505.0" y="0.0" type="line"/>
      <point x="542.0" y="222.0" type="line"/>
      <point x="653.0" y="222.0" type="line"/>
      <point x="671.0" y="330.0" type="line"/>
      <point x="560.0" y="330.0" type="line"/>
      <point x="591.0" y="516.0" type="line"/>
      <point x="471.0" y="516.0" type="line"/>
    </contour>
  </outline>
</glyph>
<glyph name="two" format="2">
  <advance width="750.0"/>
  <unicode hex="0032"/>
  <outline>
    <contour>
      <point x="102.5" y="0.0" type="line"/>
      <point x="257.0" y="0.0" type="line"/>
      <point x="580.5" y="463.5" type="line"/>
      <point x="628.5" y="532.5"/>
      <point x="648.5" y="585.0"/>
      <point x="648.5" y="645.5" type="curve" smooth="yes"/>
      <point x="648.5" y="786.5"/>
      <point x="537.5" y="900.5"/>
      <point x="398.5" y="915.0" type="curve"/>
      <point x="398.5" y="780.5" type="line"/>
      <point x="461.5" y="767.5"/>
      <point x="507.5" y="712.5"/>
      <point x="507.5" y="645.5" type="curve" smooth="yes"/>
      <point x="507.5" y="616.5"/>
      <point x="498.0" y="585.0"/>
      <point x="466.0" y="537.0" type="curve" smooth="yes"/>
    </contour>
    <contour>
      <point x="326.0" y="0.0" type="line"/>
      <point x="662.5" y="0.0" type="line"/>
      <point x="662.5" y="132.0" type="line"/>
      <point x="418.0" y="132.0" type="line"/>
    </contour>
    <contour>
      <point x="119.0" y="526.0" type="curve"/>
      <point x="285.5" y="526.0" type="line"/>
      <point x="245.5" y="559.0"/>
      <point x="225.5" y="600.5"/>
      <point x="225.5" y="645.5" type="curve" smooth="yes"/>
      <point x="225.5" y="712.5"/>
      <point x="271.5" y="768.0"/>
      <point x="334.5" y="781.0" type="curve"/>
      <point x="334.5" y="914.5" type="line"/>
      <point x="194.5" y="900.0"/>
      <point x="87.5" y="784.5"/>
      <point x="87.5" y="646.0" type="curve" smooth="yes"/>
      <point x="87.5" y="604.0"/>
      <point x="98.0" y="565.0"/>
    </contour>
  </outline>
</glyph>
<glyph name="three" format="2">
  <advance width="750.0"/>
  <unicode hex="0033"/>
  <outline>
    <contour>
      <point x="361.5" y="-15.0" type="line"/>
      <point x="523.5" y="0.0"/>
      <point x="654.0" y="129.5"/>
      <point x="654.0" y="295.0" type="curve" smooth="yes"/>
      <point x="654.0" y="436.5"/>
      <point x="557.5" y="548.5"/>
      <point x="433.0" y="583.0" type="curve"/>
      <point x="603.0" y="900.0" type="line"/>
      <point x="456.5" y="900.0" type="line"/>
      <point x="225.0" y="450.5" type="line"/>
      <point x="257.5" y="468.0"/>
      <point x="291.5" y="478.0"/>
      <point x="330.0" y="478.0" type="curve" smooth="yes"/>
      <point x="436.5" y="478.0"/>
      <point x="515.0" y="397.0"/>
      <point x="515.0" y="297.5" type="curve" smooth="yes"/>
      <point x="515.0" y="206.0"/>
      <point x="449.0" y="131.5"/>
      <point x="361.5" y="118.0" type="curve"/>
    </contour>
    <contour>
      <point x="302.0" y="-15.0" type="curve"/>
      <point x="302.0" y="118.5" type="line"/>
      <point x="218.5" y="131.5"/>
      <point x="154.5" y="198.5"/>
      <point x="138.5" y="282.0" type="curve"/>
      <point x="60.0" y="127.0" type="line"/>
      <point x="111.5" y="47.5"/>
      <point x="199.5" y="-6.5"/>
    </contour>
    <contour>
      <point x="123.0" y="774.0" type="line"/>
      <point x="326.0" y="774.0" type="line"/>
      <point x="390.5" y="900.0" type="line"/>
      <point x="123.0" y="900.0" type="line"/>
    </contour>
  </outline>
</glyph>
<glyph name="eight" format="2">
  <advance width="750.0"/>
  <unicode hex="0038"/>
  <outline>
    <contour>
      <point x="343.0" y="-15.0" type="curve"/>
      <point x="343.0" y="116.5" type="line"/>
      <point x="259.0" y="131.0"/>
      <point x="195.0" y="204.5"/>
      <point x="195.0" y="294.0" type="curve" smooth="yes"/>
      <point x="195.0" y="384.5"/>
      <point x="259.5" y="458.0"/>
      <point x="344.5" y="471.5" type="curve"/>
      <point x="344.5" y="592.5" type="line"/>
      <point x="303.0" y="605.0"/>
      <point x="272.5" y="644.0"/>
      <point x="272.5" y="690.5" type="curve" smooth="yes"/>
      <point x="272.5" y="737.0"/>
      <point x="303.0" y="776.0"/>
      <point x="345.5" y="788.5" type="curve"/>
      <point x="345.5" y="914.0" type="line"/>
      <point x="234.5" y="900.0"/>
      <point x="149.5" y="810.5"/>
      <point x="149.5" y="696.0" type="curve" smooth="yes"/>
      <point x="149.5" y="625.5"/>
      <point x="180.5" y="571.5"/>
      <point x="228.5" y="531.5" type="curve"/>
      <point x="242.0" y="573.0" type="line"/>
      <point x="134.5" y="525.5"/>
      <point x="58.0" y="420.5"/>
      <point x="58.0" y="293.5" type="curve" smooth="yes"/>
      <point x="58.0" y="129.0"/>
      <point x="186.0" y="0.0"/>
    </contour>
    <contour>
      <point x="407.0" y="-14.5" type="line"/>
      <point x="562.0" y="0.5"/>
      <point x="692.0" y="131.5"/>
      <point x="692.0" y="293.5" type="curve" smooth="yes"/>
      <point x="692.0" y="420.5"/>
      <point x="615.5" y="525.5"/>
      <point x="508.0" y="573.0" type="curve"/>
      <point x="521.5" y="531.5" type="line"/>
      <point x="569.5" y="570.5"/>
      <point x="600.5" y="625.5"/>
      <point x="600.5" y="696.0" type="curve" smooth="yes"/>
      <point x="600.5" y="810.5"/>
      <point x="515.5" y="900.0"/>
      <point x="404.5" y="914.0" type="curve"/>
      <point x="404.5" y="788.5" type="line"/>
      <point x="447.0" y="775.5"/>
      <point x="477.5" y="737.0"/>
      <point x="477.5" y="690.5" type="curve" smooth="yes"/>
      <point x="477.5" y="644.0"/>
      <point x="447.0" y="605.5"/>
      <point x="405.5" y="592.5" type="curve"/>
      <point x="405.5" y="471.5" type="line"/>
      <point x="491.0" y="457.5"/>
      <point x="555.0" y="384.0"/>
      <point x="555.0" y="294.0" type="curve" smooth="yes"/>
      <point x="555.0" y="204.5"/>
      <point x="491.0" y="130.5"/>
      <point x="407.0" y="116.5" type="curve"/>
    </contour>
  </outline>
</glyph>
<glyph name="question" format="2">
  <advance width="480.0"/>
  <unicode hex="003F"/>
  <outline>
    <contour>
      <point x="183.0" y="315.0" type="curve"/>
      <point x="297.0" y="315.0" type="line"/>
      <point x="312.5" y="472.5"/>
      <point x="456.0" y="546.0"/>
      <point x="456.0" y="700.5" type="curve" smooth="yes"/>
      <point x="456.0" y="792.0"/>
      <point x="406.0" y="867.0"/>
      <point x="321.0" y="897.5" type="curve"/>
      <point x="321.0" y="685.5" type="line" smooth="yes"/>
      <point x="321.0" y="573.0"/>
      <point x="183.0" y="509.5"/>
    </contour>
    <contour>
      <point x="240.0" y="-16.0" type="curve" smooth="yes"/>
      <point x="291.0" y="-16.0"/>
      <point x="330.0" y="23.5"/>
      <point x="330.0" y="74.0" type="curve" smooth="yes"/>
      <point x="330.0" y="124.5"/>
      <point x="291.0" y="164.0"/>
      <point x="240.0" y="164.0" type="curve" smooth="yes"/>
      <point x="189.5" y="164.0"/>
      <point x="150.0" y="124.5"/>
      <point x="150.0" y="74.0" type="curve" smooth="yes"/>
      <point x="150.0" y="23.5"/>
      <point x="189.5" y="-16.0"/>
    </contour>
    <contour>
      <point x="78.0" y="715.5" type="line"/>
      <point x="108.0" y="754.0"/>
      <point x="154.5" y="787.0"/>
      <point x="212.0" y="787.0" type="curve" smooth="yes"/>
      <point x="231.5" y="787.0"/>
      <point x="249.0" y="783.5"/>
      <point x="264.0" y="777.0" type="curve"/>
      <point x="264.0" y="911.5" type="line"/>
      <point x="249.5" y="914.0"/>
      <point x="237.5" y="915.0"/>
      <point x="223.5" y="915.0" type="curve" smooth="yes"/>
      <point x="169.0" y="915.0"/>
      <point x="118.5" y="897.5"/>
      <point x="78.0" y="867.5" type="curve"/>
    </contour>
  </outline>
</glyph>
<glyph name="at" format="2">
  <advance width="1260.0"/>
  <unicode hex="0040"/>
  <outline>
    <contour>
      <point x="619.0" y="-191.0" type="curve"/>
      <point x="619.0" y="-80.0" type="line"/>
      <point x="376.5" y="-66.0"/>
      <point x="194.0" y="120.5"/>
      <point x="194.0" y="357.5" type="curve" smooth="yes"/>
      <point x="194.0" y="592.5"/>
      <point x="372.0" y="783.0"/>
      <point x="619.0" y="799.5" type="curve"/>
      <point x="619.0" y="911.0" type="line"/>
      <point x="311.0" y="895.5"/>
      <point x="73.0" y="653.5"/>
      <point x="73.0" y="355.5" type="curve" smooth="yes"/>
      <point x="73.0" y="59.5"/>
      <point x="314.0" y="-177.5"/>
    </contour>
    <contour>
      <point x="683.0" y="-191.0" type="line"/>
      <point x="794.5" y="-185.5"/>
      <point x="898.0" y="-148.5"/>
      <point x="984.0" y="-86.0" type="curve"/>
      <point x="954.5" y="27.0" type="line"/>
      <point x="877.5" y="-37.0"/>
      <point x="784.5" y="-74.5"/>
      <point x="683.0" y="-80.0" type="curve"/>
    </contour>
    <contour>
      <point x="605.0" y="79.0" type="curve" smooth="yes"/>
      <point x="646.5" y="79.0"/>
      <point x="685.5" y="88.5"/>
      <point x="720.0" y="105.0" type="curve"/>
      <point x="720.0" y="225.5" type="line"/>
      <point x="693.5" y="205.0"/>
      <point x="660.5" y="193.0"/>
      <point x="624.0" y="193.0" type="curve" smooth="yes"/>
      <point x="533.5" y="193.0"/>
      <point x="461.5" y="267.5"/>
      <point x="461.5" y="360.0" type="curve" smooth="yes"/>
      <point x="461.5" y="452.5"/>
      <point x="533.5" y="527.0"/>
      <point x="624.0" y="527.0" type="curve" smooth="yes"/>
      <point x="660.5" y="527.0"/>
      <point x="693.5" y="515.0"/>
      <point x="720.0" y="494.5" type="curve"/>
      <point x="720.0" y="615.5" type="line"/>
      <point x="685.5" y="631.5"/>
      <point x="646.5" y="641.0"/>
      <point x="605.0" y="641.0" type="curve" smooth="yes"/>
      <point x="454.5" y="641.0"/>
      <point x="333.5" y="514.5"/>
      <point x="333.5" y="360.0" type="curve" smooth="yes"/>
      <point x="333.5" y="205.5"/>
      <point x="454.5" y="79.0"/>
    </contour>
    <contour>
      <point x="955.5" y="79.0" type="curve" smooth="yes"/>
      <point x="1076.5" y="79.0"/>
      <point x="1199.0" y="191.5"/>
      <point x="1199.0" y="403.0" type="curve" smooth="yes"/>
      <point x="1199.0" y="684.5"/>
      <point x="972.5" y="898.0"/>
      <point x="683.0" y="911.0" type="curve"/>
      <point x="683.0" y="800.5" type="line"/>
      <point x="917.0" y="789.5"/>
      <point x="1078.0" y="620.5"/>
      <point x="1078.0" y="392.0" type="curve" smooth="yes"/>
      <point x="1078.0" y="256.5"/>
      <point x="1028.0" y="175.5"/>
      <point x="963.5" y="175.5" type="curve" smooth="yes"/>
      <point x="926.5" y="175.5"/>
      <point x="894.5" y="200.5"/>
      <point x="894.5" y="257.5" type="curve" smooth="yes"/>
      <point x="894.5" y="630.0" type="line"/>
      <point x="780.5" y="630.0" type="line"/>
      <point x="780.5" y="257.5" type="line" smooth="yes"/>
      <point x="780.5" y="137.5"/>
      <point x="864.0" y="79.0"/>
    </contour>
  </outline>
</glyph>
<glyph name="E" format="2">
  <advance width="630.0"/>
  <unicode hex="0045"/>
  <anchor x="348.0" y="0.0" name="bottom"/>
  <anchor x="511.0" y="0.0" name="ogonek"/>
  <anchor x="348.0" y="900.0" name="top"/>
  <anchor x="126.0" y="900.0" name="topleft"/>
  <outline>
    <contour>
      <point x="111.0" y="0.0" type="line"/>
      <point x="255.0" y="0.0" type="line"/>
      <point x="255.0" y="900.0" type="line"/>
      <point x="111.0" y="900.0" type="line"/>
    </contour>
    <contour>
      <point x="315.0" y="0.0" type="line"/>
      <point x="573.0" y="0.0" type="line"/>
      <point x="573.0" y="132.0" type="line"/>
      <point x="315.0" y="132.0" type="line"/>
    </contour>
    <contour>
      <point x="315.0" y="480.0" type="line"/>
      <point x="503.0" y="480.0" type="line"/>
      <point x="503.0" y="606.0" type="line"/>
      <point x="315.0" y="606.0" type="line"/>
    </contour>
    <contour>
      <point x="315.0" y="771.0" type="line"/>
      <point x="573.0" y="771.0" type="line"/>
      <point x="573.0" y="900.0" type="line"/>
      <point x="315.0" y="900.0" type="line"/>
    </contour>
  </outline>
</glyph>
<glyph name="G" format="2">
  <advance width="930.0"/>
  <unicode hex="0047"/>
  <anchor x="529.0" y="0.0" name="bottom"/>
  <anchor x="783.0" y="270.0" name="center"/>
  <anchor x="530.0" y="900.0" name="top"/>
  <outline>
    <contour>
      <point x="534.5" y="-18.0" type="curve" smooth="yes"/>
      <point x="571.0" y="-18.0"/>
      <point x="605.5" y="-14.0"/>
      <point x="638.0" y="-5.0" type="curve"/>
      <point x="638.0" y="137.5" type="line"/>
      <point x="607.0" y="124.5"/>
      <point x="572.0" y="119.0"/>
      <point x="533.0" y="119.0" type="curve" smooth="yes"/>
      <point x="349.0" y="119.0"/>
      <point x="210.0" y="263.0"/>
      <point x="210.0" y="449.0" type="curve" smooth="yes"/>
      <point x="210.0" y="624.5"/>
      <point x="333.5" y="762.5"/>
      <point x="500.0" y="778.0" type="curve"/>
      <point x="500.0" y="917.0" type="line"/>
      <point x="251.0" y="902.0"/>
      <point x="57.0" y="702.0"/>
      <point x="57.0" y="449.0" type="curve" smooth="yes"/>
      <point x="57.0" y="185.5"/>
      <point x="267.5" y="-18.0"/>
    </contour>
    <contour>
      <point x="702.0" y="8.0" type="line"/>
      <point x="751.0" y="23.5"/>
      <point x="798.5" y="46.5"/>
      <point x="839.0" y="75.5" type="curve"/>
      <point x="839.0" y="492.0" type="line"/>
      <point x="486.5" y="492.0" type="line"/>
      <point x="486.5" y="366.0" type="line"/>
      <point x="702.0" y="366.0" type="line"/>
    </contour>
    <contour>
      <point x="813.0" y="624.0" type="curve"/>
      <point x="855.0" y="796.0" type="line"/>
      <point x="777.5" y="866.0"/>
      <point x="677.5" y="910.5"/>
      <point x="568.0" y="917.0" type="curve"/>
      <point x="568.0" y="778.0" type="line"/>
      <point x="674.5" y="768.5"/>
      <point x="761.0" y="707.0"/>
    </contour>
  </outline>
</glyph>
<glyph name="J" format="2">
  <advance width="550.0"/>
  <unicode hex="004A"/>
  <anchor x="160.5" y="0.0" name="bottom"/>
  <anchor x="379.5" y="900.0" name="top"/>
  <outline>
    <contour>
      <point x="304.0" y="6.0" type="line"/>
      <point x="389.5" y="41.5"/>
      <point x="454.0" y="122.5"/>
      <point x="454.0" y="258.5" type="curve" smooth="yes"/>
      <point x="454.0" y="900.0" type="line"/>
      <point x="304.0" y="900.0" type="line"/>
    </contour>
    <contour>
      <point x="189.5" y="-16.0" type="curve" smooth="yes"/>
      <point x="206.5" y="-16.0"/>
      <point x="224.0" y="-14.0"/>
      <point x="240.0" y="-10.5" type="curve"/>
      <point x="240.0" y="133.5" type="line"/>
      <point x="222.0" y="123.5"/>
      <point x="201.5" y="119.0"/>
      <point x="179.5" y="119.0" type="curve" smooth="yes"/>
      <point x="124.5" y="119.0"/>
      <point x="80.0" y="148.0"/>
      <point x="52.0" y="194.0" type="curve"/>
      <point x="12.0" y="50.0" type="line"/>
      <point x="57.0" y="3.5"/>
      <point x="124.5" y="-16.0"/>
    </contour>
  </outline>
</glyph>
<glyph name="L" format="2">
  <advance width="600.0"/>
  <unicode hex="004C"/>
  <anchor x="339.0" y="0.0" name="bottom"/>
  <anchor x="183.0" y="450.0" name="center"/>
  <anchor x="420.0" y="480.0" name="periodcentered"/>
  <anchor x="183.0" y="900.0" name="top"/>
  <anchor x="282.0" y="900.0" name="topright"/>
  <outline>
    <contour>
      <point x="111.0" y="0.0" type="line"/>
      <point x="261.0" y="0.0" type="line"/>
      <point x="261.0" y="900.0" type="line"/>
      <point x="111.0" y="900.0" type="line"/>
    </contour>
    <contour>
      <point x="321.0" y="0.0" type="line"/>
      <point x="552.0" y="0.0" type="line"/>
      <point x="552.0" y="132.0" type="line"/>
      <point x="321.0" y="132.0" type="line"/>
    </contour>
  </outline>
</glyph>
<glyph name="O" format="2">
  <advance width="1060.0"/>
  <unicode hex="004F"/>
  <anchor x="530.0" y="0.0" name="bottom"/>
  <anchor x="530.0" y="450.0" name="center"/>
  <anchor x="530.0" y="0.0" name="ogonek"/>
  <anchor x="530.0" y="900.0" name="top"/>
  <anchor x="530.0" y="495.0" name="top-vertical"/>
  <anchor x="60.0" y="900.0" name="topleft"/>
  <anchor x="1000.0" y="900.0" name="topright"/>
  <outline>
    <contour>
      <point x="564.0" y="-17.0" type="line"/>
      <point x="808.5" y="-1.0"/>
      <point x="1003.0" y="201.5"/>
      <point x="1003.0" y="450.0" type="curve" smooth="yes"/>
      <point x="1003.0" y="698.5"/>
      <point x="808.5" y="901.0"/>
      <point x="564.0" y="917.0" type="curve"/>
      <point x="564.0" y="775.5" type="line"/>
      <point x="726.0" y="759.5"/>
      <point x="850.0" y="620.5"/>
      <point x="850.0" y="450.0" type="curve" smooth="yes"/>
      <point x="850.0" y="279.5"/>
      <point x="726.0" y="140.5"/>
      <point x="564.0" y="124.5" type="curve"/>
    </contour>
    <contour>
      <point x="496.0" y="-17.0" type="curve"/>
      <point x="496.0" y="124.5" type="line"/>
      <point x="334.0" y="140.5"/>
      <point x="210.0" y="280.0"/>
      <point x="210.0" y="450.0" type="curve" smooth="yes"/>
      <point x="210.0" y="620.0"/>
      <point x="334.0" y="759.5"/>
      <point x="496.0" y="775.5" type="curve"/>
      <point x="496.0" y="917.0" type="line"/>
      <point x="251.5" y="901.0"/>
      <point x="57.0" y="698.5"/>
      <point x="57.0" y="450.0" type="curve" smooth="yes"/>
      <point x="57.0" y="201.5"/>
      <point x="251.5" y="-1.0"/>
    </contour>
  </outline>
</glyph>
<glyph name="P" format="2">
  <advance width="730.0"/>
  <unicode hex="0050"/>
  <outline>
    <contour>
      <point x="315.0" y="302.5" type="line"/>
      <point x="358.5" y="302.5" type="line" smooth="yes"/>
      <point x="603.5" y="302.5"/>
      <point x="691.0" y="469.5"/>
      <point x="691.0" y="601.0" type="curve" smooth="yes"/>
      <point x="691.0" y="735.0"/>
      <point x="602.5" y="900.0"/>
      <point x="358.5" y="900.0" type="curve" smooth="yes"/>
      <point x="315.0" y="900.0" type="line"/>
      <point x="315.0" y="771.0" type="line"/>
      <point x="350.5" y="771.0" type="line" smooth="yes"/>
      <point x="497.5" y="771.0"/>
      <point x="544.0" y="680.0"/>
      <point x="544.0" y="601.0" type="curve" smooth="yes"/>
      <point x="544.0" y="519.0"/>
      <point x="495.0" y="431.5"/>
      <point x="350.5" y="431.5" type="curve" smooth="yes"/>
      <point x="315.0" y="431.5" type="line"/>
    </contour>
    <contour>
      <point x="111.0" y="0.0" type="line"/>
      <point x="255.0" y="0.0" type="line"/>
      <point x="255.0" y="900.0" type="line"/>
      <point x="111.0" y="900.0" type="line"/>
    </contour>
  </outline>
</glyph>
<glyph name="Q" format="2">
  <advance width="1060.0"/>
  <unicode hex="0051"/>
  <outline>
    <contour>
      <point x="530.0" y="-18.0" type="curve" smooth="yes"/>
      <point x="598.5" y="-18.0"/>
      <point x="664.0" y="-3.5"/>
      <point x="722.5" y="22.5" type="curve"/>
      <point x="625.5" y="138.5" type="line"/>
      <point x="595.5" y="128.5"/>
      <point x="563.5" y="123.0"/>
      <point x="530.0" y="123.0" type="curve" smooth="yes"/>
      <point x="350.0" y="123.0"/>
      <point x="210.0" y="269.0"/>
      <point x="210.0" y="450.0" type="curve" smooth="yes"/>
      <point x="210.0" y="620.5"/>
      <point x="334.5" y="760.0"/>
      <point x="496.0" y="775.5" type="curve"/>
      <point x="496.0" y="917.0" type="line"/>
      <point x="252.0" y="901.5"/>
      <point x="57.0" y="699.0"/>
      <point x="57.0" y="450.0" type="curve" smooth="yes"/>
      <point x="57.0" y="191.0"/>
      <point x="268.5" y="-18.0"/>
    </contour>
    <contour>
      <point x="841.0" y="-30.0" type="line"/>
      <point x="1008.0" y="-30.0" type="line"/>
      <point x="609.0" y="450.0" type="line"/>
      <point x="442.0" y="450.0" type="line"/>
    </contour>
    <contour>
      <point x="828.0" y="86.5" type="line"/>
      <point x="934.5" y="171.5"/>
      <point x="1003.0" y="303.0"/>
      <point x="1003.0" y="450.0" type="curve" smooth="yes"/>
      <point x="1003.0" y="699.0"/>
      <point x="807.5" y="902.0"/>
      <point x="564.0" y="917.0" type="curve"/>
      <point x="564.0" y="775.5" type="line"/>
      <point x="725.0" y="760.0"/>
      <point x="850.0" y="621.0"/>
      <point x="850.0" y="450.0" type="curve" smooth="yes"/>
      <point x="850.0" y="351.5"/>
      <point x="809.0" y="264.0"/>
      <point x="742.5" y="204.5" type="curve"/>
    </contour>
  </outline>
</glyph>
<glyph name="R" format="2">
  <advance width="790.0"/>
  <unicode hex="0052"/>
  <anchor x="439.0" y="0.0" name="bottom"/>
  <anchor x="325.0" y="900.0" name="top"/>
  <outline>
    <contour>
      <point x="615.0" y="0.0" type="line"/>
      <point x="780.0" y="0.0" type="line"/>
      <point x="454.5" y="501.0" type="line"/>
      <point x="318.0" y="501.0" type="line"/>
      <point x="318.0" y="378.0" type="line"/>
      <point x="364.5" y="378.0" type="line" smooth="yes"/>
      <point x="399.5" y="378.0"/>
      <point x="431.5" y="382.5"/>
      <point x="460.5" y="391.5" type="curve"/>
      <point x="323.0" y="456.0" type="line"/>
    </contour>
    <contour>
      <point x="114.0" y="0.0" type="line"/>
      <point x="258.0" y="0.0" type="line"/>
      <point x="258.0" y="900.0" type="line"/>
      <point x="114.0" y="900.0" type="line"/>
    </contour>
    <contour>
      <point x="562.5" y="441.0" type="line"/>
      <point x="622.5" y="487.5"/>
      <point x="657.0" y="556.5"/>
      <point x="657.0" y="635.5" type="curve" smooth="yes"/>
      <point x="657.0" y="778.0"/>
      <point x="547.0" y="900.0"/>
      <point x="364.5" y="900.0" type="curve" smooth="yes"/>
      <point x="318.0" y="900.0" type="line"/>
      <point x="318.0" y="768.0" type="line"/>
      <point x="362.5" y="768.0" type="line" smooth="yes"/>
      <point x="454.5" y="768.0"/>
      <point x="516.0" y="713.0"/>
      <point x="516.0" y="635.5" type="curve" smooth="yes"/>
      <point x="516.0" y="609.0"/>
      <point x="506.5" y="582.5"/>
      <point x="485.5" y="562.5" type="curve"/>
    </contour>
  </outline>
</glyph>
<glyph name="S" format="2">
  <advance width="660.0"/>
  <unicode hex="0053"/>
  <anchor x="319.5" y="0.0" name="bottom"/>
  <anchor x="340.5" y="900.0" name="top"/>
  <outline>
    <contour>
      <point x="354.5" y="-15.0" type="line"/>
      <point x="508.5" y="-1.5"/>
      <point x="610.5" y="109.0"/>
      <point x="610.5" y="254.5" type="curve" smooth="yes"/>
      <point x="610.5" y="413.5"/>
      <point x="488.0" y="480.0"/>
      <point x="425.5" y="511.0" type="curve" smooth="yes"/>
      <point x="316.0" y="565.5" type="line" smooth="yes"/>
      <point x="273.5" y="586.5"/>
      <point x="222.5" y="617.5"/>
      <point x="222.5" y="681.0" type="curve" smooth="yes"/>
      <point x="222.5" y="732.0"/>
      <point x="255.0" y="773.0"/>
      <point x="311.0" y="783.5" type="curve"/>
      <point x="311.0" y="914.0" type="line"/>
      <point x="171.5" y="900.5"/>
      <point x="81.5" y="805.0"/>
      <point x="81.5" y="672.0" type="curve" smooth="yes"/>
      <point x="81.5" y="532.5"/>
      <point x="180.5" y="473.0"/>
      <point x="253.5" y="436.5" type="curve" smooth="yes"/>
      <point x="361.5" y="382.0" type="line" smooth="yes"/>
      <point x="395.5" y="365.0"/>
      <point x="469.5" y="327.5"/>
      <point x="469.5" y="245.5" type="curve" smooth="yes"/>
      <point x="469.5" y="180.5"/>
      <point x="424.0" y="128.5"/>
      <point x="354.5" y="118.0" type="curve"/>
    </contour>
    <contour>
      <point x="294.5" y="-15.0" type="curve"/>
      <point x="294.5" y="118.5" type="line"/>
      <point x="212.0" y="131.5"/>
      <point x="141.5" y="191.0"/>
      <point x="104.5" y="260.0" type="curve"/>
      <point x="63.5" y="91.0" type="line"/>
      <point x="113.5" y="36.5"/>
      <point x="197.5" y="-7.5"/>
    </contour>
    <contour>
      <point x="535.0" y="670.5" type="curve"/>
      <point x="574.5" y="837.0" type="line"/>
      <point x="532.0" y="871.0"/>
      <point x="460.5" y="909.0"/>
      <point x="371.0" y="915.0" type="curve"/>
      <point x="371.0" y="783.0" type="line"/>
      <point x="436.5" y="771.5"/>
      <point x="497.5" y="724.5"/>
    </contour>
  </outline>
</glyph>
<glyph name="U" format="2">
  <advance width="800.0"/>
  <unicode hex="0055"/>
  <anchor x="400.0" y="0.0" name="bottom"/>
  <anchor x="430.0" y="0.0" name="ogonek"/>
  <anchor x="400.0" y="900.0" name="top"/>
  <anchor x="400.0" y="720.0" name="top-vertical"/>
  <anchor x="635.0" y="900.0" name="topright"/>
  <outline>
    <contour>
      <point x="366.5" y="-15.5" type="curve"/>
      <point x="366.5" y="123.5" type="line"/>
      <point x="291.0" y="138.0"/>
      <point x="240.0" y="204.0"/>
      <point x="240.0" y="299.5" type="curve" smooth="yes"/>
      <point x="240.0" y="900.0" type="line"/>
      <point x="90.0" y="900.0" type="line"/>
      <point x="90.0" y="293.0" type="line" smooth="yes"/>
      <point x="90.0" y="115.5"/>
      <point x="204.0" y="-3.0"/>
    </contour>
    <contour>
      <point x="434.5" y="-15.5" type="line"/>
      <point x="598.0" y="-2.5"/>
      <point x="710.0" y="116.5"/>
      <point x="710.0" y="296.5" type="curve" smooth="yes"/>
      <point x="710.0" y="900.0" type="line"/>
      <point x="565.0" y="900.0" type="line"/>
      <point x="565.0" y="294.5" type="line" smooth="yes"/>
      <point x="565.0" y="201.0"/>
      <point x="511.5" y="136.0"/>
      <point x="434.5" y="123.5" type="curve"/>
    </contour>
  </outline>
</glyph>
<glyph name="X" format="2">
  <advance width="870.0"/>
  <unicode hex="0058"/>
  <outline>
    <contour>
      <point x="693.0" y="0.0" type="line"/>
      <point x="867.0" y="0.0" type="line"/>
      <point x="263.5" y="900.0" type="line"/>
      <point x="93.0" y="900.0" type="line"/>
    </contour>
    <contour>
      <point x="6.0" y="0.0" type="line"/>
      <point x="174.0" y="0.0" type="line"/>
      <point x="392.5" y="343.0" type="line"/>
      <point x="308.0" y="471.0" type="line"/>
    </contour>
    <contour>
      <point x="560.0" y="565.0" type="line"/>
      <point x="777.0" y="900.0" type="line"/>
      <point x="614.5" y="900.0" type="line"/>
      <point x="477.5" y="689.5" type="line"/>
    </contour>
  </outline>
</glyph>
<glyph name="Y" format="2">
  <advance width="700.0"/>
  <unicode hex="0059"/>
  <anchor x="351.0" y="0.0" name="bottom"/>
  <anchor x="351.0" y="900.0" name="top"/>
  <anchor x="28.0" y="900.0" name="topleft"/>
  <outline>
    <contour>
      <point x="276.5" y="0.0" type="line"/>
      <point x="423.5" y="0.0" type="line"/>
      <point x="423.5" y="430.5" type="line"/>
      <point x="179.0" y="900.0" type="line"/>
      <point x="12.0" y="900.0" type="line"/>
      <point x="276.5" y="430.5" type="line"/>
    </contour>
    <contour>
      <point x="461.0" y="498.0" type="line"/>
      <point x="688.0" y="900.0" type="line"/>
      <point x="533.0" y="900.5" type="line"/>
      <point x="389.0" y="638.0" type="line"/>
    </contour>
  </outline>
</glyph>
<glyph name="Z" format="2">
  <advance width="670.0"/>
  <unicode hex="005A"/>
  <anchor x="319.5" y="0.0" name="bottom"/>
  <anchor x="328.5" y="450.0" name="center"/>
  <anchor x="349.5" y="900.0" name="top"/>
  <outline>
    <contour>
      <point x="30.0" y="0.0" type="line"/>
      <point x="182.0" y="0.0" type="line"/>
      <point x="628.0" y="900.0" type="line"/>
      <point x="476.0" y="900.0" type="line"/>
    </contour>
    <contour>
      <point x="247.5" y="0.0" type="line"/>
      <point x="608.5" y="0.0" type="line"/>
      <point x="608.5" y="132.0" type="line"/>
      <point x="312.5" y="132.0" type="line"/>
    </contour>
    <contour>
      <point x="73.5" y="768.0" type="line"/>
      <point x="345.5" y="768.0" type="line"/>
      <point x="410.0" y="900.0" type="line"/>
      <point x="73.5" y="900.0" type="line"/>
    </contour>
  </outline>
</glyph>
<glyph name="c" format="2">
  <advance width="615.0"/>
  <unicode hex="0063"/>
  <anchor x="371.0" y="0.0" name="bottom"/>
  <anchor x="371.0" y="600.0" name="top"/>
  <outline>
    <contour>
      <point x="332.0" y="-14.5" type="curve"/>
      <point x="332.0" y="116.0" type="line"/>
      <point x="245.5" y="132.5"/>
      <point x="183.0" y="209.0"/>
      <point x="183.0" y="300.0" type="curve" smooth="yes"/>
      <point x="183.0" y="391.0"/>
      <point x="246.0" y="467.5"/>
      <point x="332.0" y="483.5" type="curve"/>
      <point x="332.0" y="614.5" type="line"/>
      <point x="170.5" y="599.0"/>
      <point x="45.0" y="464.0"/>
      <point x="45.0" y="300.0" type="curve" smooth="yes"/>
      <point x="45.0" y="136.5"/>
      <point x="170.0" y="1.5"/>
    </contour>
    <contour>
      <point x="396.0" y="-14.5" type="line"/>
      <point x="469.0" y="-8.5"/>
      <point x="534.5" y="20.5"/>
      <point x="585.0" y="66.5" type="curve"/>
      <point x="546.0" y="223.0" type="line"/>
      <point x="516.0" y="168.5"/>
      <point x="463.0" y="124.5"/>
      <point x="396.0" y="114.5" type="curve"/>
    </contour>
    <contour>
      <point x="546.0" y="377.0" type="curve"/>
      <point x="585.0" y="533.5" type="line"/>
      <point x="534.5" y="579.0"/>
      <point x="469.0" y="608.5"/>
      <point x="396.0" y="614.5" type="curve"/>
      <point x="396.0" y="484.5" type="line"/>
      <point x="463.0" y="475.5"/>
      <point x="516.5" y="430.5"/>
    </contour>
  </outline>
</glyph>
<glyph name="g" format="2">
  <advance width="750.0"/>
  <unicode hex="0067"/>
  <anchor x="381.0" y="-330.0" name="bottom"/>
  <anchor x="606.5" y="300.0" name="center"/>
  <anchor x="381.0" y="600.0" name="top"/>
  <outline>
    <contour>
      <point x="344.5" y="-12.0" type="curve" smooth="yes"/>
      <point x="389.5" y="-12.0"/>
      <point x="431.0" y="-2.0"/>
      <point x="468.0" y="16.0" type="curve"/>
      <point x="468.0" y="148.5" type="line"/>
      <point x="438.0" y="126.5"/>
      <point x="401.5" y="113.5"/>
      <point x="362.0" y="113.5" type="curve" smooth="yes"/>
      <point x="261.0" y="113.5"/>
      <point x="180.0" y="197.0"/>
      <point x="180.0" y="300.0" type="curve" smooth="yes"/>
      <point x="180.0" y="403.0"/>
      <point x="261.0" y="486.5"/>
      <point x="362.0" y="486.5" type="curve" smooth="yes"/>
      <point x="401.5" y="486.5"/>
      <point x="438.0" y="473.5"/>
      <point x="468.0" y="451.5" type="curve"/>
      <point x="468.0" y="584.0" type="line"/>
      <point x="431.0" y="602.0"/>
      <point x="389.5" y="612.0"/>
      <point x="344.5" y="612.0" type="curve" smooth="yes"/>
      <point x="179.0" y="612.0"/>
      <point x="45.0" y="472.0"/>
      <point x="45.0" y="300.0" type="curve" smooth="yes"/>
      <point x="45.0" y="128.0"/>
      <point x="179.0" y="-12.0"/>
    </contour>
    <contour>
      <point x="395.5" y="-316.0" type="line"/>
      <point x="545.5" y="-293.5"/>
      <point x="669.0" y="-180.0"/>
      <point x="669.0" y="-4.0" type="curve" smooth="yes"/>
      <point x="669.0" y="600.0" type="line"/>
      <point x="528.0" y="600.0" type="line"/>
      <point x="528.0" y="11.5" type="line" smooth="yes"/>
      <point x="528.0" y="-87.5"/>
      <point x="477.0" y="-164.0"/>
      <point x="395.5" y="-187.5" type="curve"/>
    </contour>
    <contour>
      <point x="331.5" y="-316.0" type="curve"/>
      <point x="331.5" y="-191.0" type="line"/>
      <point x="244.5" y="-191.0"/>
      <point x="176.0" y="-151.0"/>
      <point x="135.0" y="-93.5" type="curve"/>
      <point x="99.0" y="-240.5" type="line"/>
      <point x="158.5" y="-287.5"/>
      <point x="240.0" y="-316.0"/>
    </contour>
  </outline>
</glyph>
<glyph name="h" format="2">
  <advance width="710.0"/>
  <unicode hex="0068"/>
  <anchor x="360.0" y="0.0" name="bottom"/>
  <anchor x="150.0" y="780.0" name="center"/>
  <anchor x="150.0" y="960.0" name="top"/>
  <outline>
    <contour>
      <point x="500.0" y="0.0" type="line"/>
      <point x="641.0" y="0.0" type="line"/>
      <point x="641.0" y="352.0" type="line" smooth="yes"/>
      <point x="641.0" y="519.5"/>
      <point x="525.5" y="616.0"/>
      <point x="398.5" y="616.0" type="curve" smooth="yes"/>
      <point x="356.0" y="616.0"/>
      <point x="316.5" y="605.5"/>
      <point x="282.0" y="585.0" type="curve"/>
      <point x="282.0" y="462.0" type="line"/>
      <point x="304.5" y="479.0"/>
      <point x="332.0" y="487.0"/>
      <point x="361.0" y="487.0" type="curve" smooth="yes"/>
      <point x="449.5" y="487.0"/>
      <point x="500.0" y="414.0"/>
      <point x="500.0" y="333.0" type="curve" smooth="yes"/>
    </contour>
    <contour>
      <point x="81.0" y="0.0" type="line"/>
      <point x="222.0" y="0.0" type="line"/>
      <point x="222.0" y="960.0" type="line"/>
      <point x="81.0" y="960.0" type="line"/>
    </contour>
  </outline>
</glyph>
<glyph name="r" format="2">
  <advance width="455.0"/>
  <unicode hex="0072"/>
  <anchor x="150.0" y="0.0" name="bottom"/>
  <anchor x="252.0" y="600.0" name="top"/>
  <outline>
    <contour>
      <point x="81.0" y="0.0" type="line"/>
      <point x="222.0" y="0.0" type="line"/>
      <point x="222.0" y="600.0" type="line"/>
      <point x="81.0" y="600.0" type="line"/>
    </contour>
    <contour>
      <point x="276.0" y="436.5" type="line"/>
      <point x="311.5" y="467.0"/>
      <point x="351.5" y="481.0"/>
      <point x="398.5" y="481.0" type="curve" smooth="yes"/>
      <point x="413.0" y="481.0"/>
      <point x="429.0" y="479.0"/>
      <point x="442.0" y="475.0" type="curve"/>
      <point x="409.5" y="606.0" type="line"/>
      <point x="359.5" y="606.0"/>
      <point x="317.0" y="593.0"/>
      <point x="276.0" y="565.5" type="curve"/>
    </contour>
  </outline>
</glyph>
<glyph name="u" format="2">
  <advance width="710.0"/>
  <unicode hex="0075"/>
  <anchor x="354.0" y="0.0" name="bottom"/>
  <anchor x="568.0" y="0.0" name="ogonek"/>
  <anchor x="354.0" y="600.0" name="top"/>
  <anchor x="564.0" y="600.0" name="topright"/>
  <outline>
    <contour>
      <point x="311.5" y="-16.0" type="curve" smooth="yes"/>
      <point x="353.0" y="-16.0"/>
      <point x="393.0" y="-5.5"/>
      <point x="428.0" y="14.0" type="curve"/>
      <point x="428.0" y="137.5" type="line"/>
      <point x="405.0" y="121.5"/>
      <point x="377.5" y="113.0"/>
      <point x="349.0" y="113.0" type="curve" smooth="yes"/>
      <point x="260.5" y="113.0"/>
      <point x="210.0" y="186.0"/>
      <point x="210.0" y="267.0" type="curve" smooth="yes"/>
      <point x="210.0" y="600.0" type="line"/>
      <point x="69.0" y="600.0" type="line"/>
      <point x="69.0" y="248.0" type="line" smooth="yes"/>
      <point x="69.0" y="80.5"/>
      <point x="184.5" y="-16.0"/>
    </contour>
    <contour>
      <point x="488.0" y="0.0" type="line"/>
      <point x="629.0" y="0.0" type="line"/>
      <point x="629.0" y="600.0" type="line"/>
      <point x="488.0" y="600.0" type="line"/>
    </contour>
  </outline>
</glyph>
<glyph name="v" format="2">
  <advance width="650.0"/>
  <unicode hex="0076"/>
  <outline>
    <contour>
      <point x="325.0" y="-30.0" type="line"/>
      <point x="398.0" y="116.0" type="line"/>
      <point x="167.0" y="600.0" type="line"/>
      <point x="9.0" y="600.0" type="line"/>
    </contour>
    <contour>
      <point x="432.0" y="183.0" type="line"/>
      <point x="641.0" y="600.0" type="line"/>
      <point x="491.0" y="600.0" type="line"/>
      <point x="362.0" y="329.5" type="line"/>
    </contour>
  </outline>
</glyph>
<glyph name="x" format="2">
  <advance width="620.0"/>
  <unicode hex="0078"/>
  <outline>
    <contour>
      <point x="441.0" y="0.0" type="line"/>
      <point x="602.0" y="0.0" type="line"/>
      <point x="197.0" y="600.0" type="line"/>
      <point x="38.0" y="600.0" type="line"/>
    </contour>
    <contour>
      <point x="18.0" y="0.0" type="line"/>
      <point x="175.0" y="0.0" type="line"/>
      <point x="269.5" y="152.5" type="line"/>
      <point x="194.0" y="265.5" type="line"/>
    </contour>
    <contour>
      <point x="425.5" y="365.0" type="line"/>
      <point x="582.0" y="600.0" type="line"/>
      <point x="425.0" y="600.0" type="line"/>
      <point x="349.0" y="477.0" type="line"/>
    </contour>
  </outline>
</glyph>
<glyph name="y" format="2">
  <advance width="670.0"/>
  <unicode hex="0079"/>
  <anchor x="452.0" y="0.0" name="bottom"/>
  <anchor x="338.0" y="600.0" name="top"/>
  <outline>
    <contour>
      <point x="61.0" y="-300.0" type="line"/>
      <point x="213.0" y="-300.0" type="line"/>
      <point x="661.0" y="600.0" type="line"/>
      <point x="511.0" y="600.0" type="line"/>
    </contour>
    <contour>
      <point x="225.5" y="162.5" type="line"/>
      <point x="303.0" y="318.0" type="line"/>
      <point x="296.5" y="332.0"/>
      <point x="290.0" y="345.5"/>
      <point x="283.0" y="360.0" type="curve" smooth="yes"/>
      <point x="166.0" y="600.0" type="line"/>
      <point x="9.0" y="600.0" type="line"/>
    </contour>
  </outline>
</glyph>
<glyph name="braceleft" format="2">
  <advance width="480.0"/>
  <unicode hex="007B"/>
  <outline>
    <contour>
      <point x="404.5" y="-186.0" type="curve"/>
      <point x="432.0" y="-75.0" type="line"/>
      <point x="340.5" y="-75.0"/>
      <point x="259.0" y="-50.0"/>
      <point x="259.0" y="80.5" type="curve" smooth="yes"/>
      <point x="259.0" y="135.0"/>
      <point x="274.0" y="190.5"/>
      <point x="274.0" y="243.0" type="curve" smooth="yes"/>
      <point x="274.0" y="371.0"/>
      <point x="184.5" y="409.5"/>
      <point x="85.5" y="409.5" type="curve"/>
      <point x="85.5" y="370.5" type="line"/>
      <point x="184.5" y="370.5"/>
      <point x="274.0" y="409.0"/>
      <point x="274.0" y="537.0" type="curve" smooth="yes"/>
      <point x="274.0" y="589.5"/>
      <point x="259.0" y="645.0"/>
      <point x="259.0" y="699.5" type="curve" smooth="yes"/>
      <point x="259.0" y="830.0"/>
      <point x="340.5" y="855.0"/>
      <point x="432.0" y="855.0" type="curve"/>
      <point x="404.5" y="966.0" type="line"/>
      <point x="260.5" y="966.0"/>
      <point x="133.0" y="886.0"/>
      <point x="133.0" y="712.5" type="curve" smooth="yes"/>
      <point x="133.0" y="654.0"/>
      <point x="148.0" y="597.5"/>
      <point x="148.0" y="546.0" type="curve" smooth="yes"/>
      <point x="148.0" y="460.0"/>
      <point x="106.5" y="426.0"/>
      <point x="33.0" y="390.0" type="curve"/>
      <point x="106.5" y="354.0"/>
      <point x="148.0" y="320.0"/>
      <point x="148.0" y="234.0" type="curve" smooth="yes"/>
      <point x="148.0" y="182.5"/>
      <point x="133.0" y="126.0"/>
      <point x="133.0" y="67.5" type="curve" smooth="yes"/>
      <point x="133.0" y="-106.0"/>
      <point x="260.5" y="-186.0"/>
    </contour>
  </outline>
</glyph>
<glyph name="braceright" format="2">
  <advance width="480.0"/>
  <unicode hex="007D"/>
  <outline>
    <contour>
      <point x="75.5" y="-186.0" type="line"/>
      <point x="219.5" y="-186.0"/>
      <point x="347.0" y="-106.0"/>
      <point x="347.0" y="67.5" type="curve" smooth="yes"/>
      <point x="347.0" y="126.0"/>
      <point x="332.0" y="182.5"/>
      <point x="332.0" y="234.0" type="curve" smooth="yes"/>
      <point x="332.0" y="320.0"/>
      <point x="373.5" y="354.0"/>
      <point x="447.0" y="390.0" type="curve"/>
      <point x="373.5" y="426.0"/>
      <point x="332.0" y="460.0"/>
      <point x="332.0" y="546.0" type="curve" smooth="yes"/>
      <point x="332.0" y="597.5"/>
      <point x="347.0" y="654.0"/>
      <point x="347.0" y="712.5" type="curve" smooth="yes"/>
      <point x="347.0" y="886.0"/>
      <point x="219.5" y="966.0"/>
      <point x="75.5" y="966.0" type="curve"/>
      <point x="48.0" y="855.0" type="line"/>
      <point x="139.5" y="855.0"/>
      <point x="221.0" y="830.0"/>
      <point x="221.0" y="699.5" type="curve" smooth="yes"/>
      <point x="221.0" y="645.0"/>
      <point x="206.0" y="589.5"/>
      <point x="206.0" y="537.0" type="curve" smooth="yes"/>
      <point x="206.0" y="409.0"/>
      <point x="295.5" y="370.5"/>
      <point x="394.5" y="370.5" type="curve"/>
      <point x="394.5" y="409.5" type="line"/>
      <point x="295.5" y="409.5"/>
      <point x="206.0" y="371.0"/>
      <point x="206.0" y="243.0" type="curve" smooth="yes"/>
      <point x="206.0" y="190.5"/>
      <point x="221.0" y="135.0"/>
      <point x="221.0" y="80.5" type="curve" smooth="yes"/>
      <point x="221.0" y="-50.0"/>
      <point x="139.5" y="-75.0"/>
      <point x="48.0" y="-75.0" type="curve"/>
    </contour>
  </outline>
</glyph>
<glyph name="section" format="2">
  <advance width="750.0"/>
  <unicode hex="00A7"/>
  <outline>
    <contour>
      <point x="428.5" y="-185.5" type="line"/>
      <point x="536.5" y="-162.5"/>
      <point x="612.0" y="-77.0"/>
      <point x="612.0" y="36.5" type="curve" smooth="yes"/>
      <point x="612.0" y="130.5"/>
      <point x="564.0" y="200.0"/>
      <point x="465.5" y="243.5" type="curve" smooth="yes"/>
      <point x="301.5" y="316.0" type="line" smooth="yes"/>
      <point x="256.5" y="337.5"/>
      <point x="193.5" y="367.0"/>
      <point x="193.5" y="437.5" type="curve" smooth="yes"/>
      <point x="193.5" y="474.5"/>
      <point x="210.5" y="506.5"/>
      <point x="240.0" y="526.5" type="curve"/>
      <point x="134.5" y="573.5" type="line"/>
      <point x="91.5" y="535.5"/>
      <point x="66.0" y="482.0"/>
      <point x="66.0" y="417.5" type="curve" smooth="yes"/>
      <point x="66.0" y="284.5"/>
      <point x="175.0" y="234.0"/>
      <point x="229.0" y="208.5" type="curve" smooth="yes"/>
      <point x="402.0" y="128.0" type="line" smooth="yes"/>
      <point x="427.0" y="116.5"/>
      <point x="484.5" y="88.5"/>
      <point x="484.5" y="25.5" type="curve" smooth="yes"/>
      <point x="484.5" y="-14.0"/>
      <point x="463.5" y="-47.5"/>
      <point x="428.5" y="-64.0" type="curve"/>
    </contour>
    <contour>
      <point x="364.5" y="-192.0" type="curve"/>
      <point x="364.5" y="-76.0" type="line"/>
      <point x="294.0" y="-75.0"/>
      <point x="221.0" y="-24.0"/>
      <point x="191.0" y="36.0" type="curve"/>
      <point x="146.0" y="-104.5" type="line"/>
      <point x="197.0" y="-162.5"/>
      <point x="288.5" y="-192.0"/>
    </contour>
    <contour>
      <point x="616.5" y="249.5" type="line"/>
      <point x="658.5" y="286.5"/>
      <point x="684.0" y="339.5"/>
      <point x="684.0" y="403.0" type="curve" smooth="yes"/>
      <point x="684.0" y="534.5"/>
      <point x="576.5" y="588.5"/>
      <point x="521.0" y="614.0" type="curve" smooth="yes"/>
      <point x="354.0" y="691.5" type="line" smooth="yes"/>
      <point x="325.0" y="705.0"/>
      <point x="289.5" y="730.0"/>
      <point x="289.5" y="776.0" type="curve" smooth="yes"/>
      <point x="289.5" y="810.0"/>
      <point x="308.5" y="839.5"/>
      <point x="343.5" y="851.5" type="curve"/>
      <point x="343.5" y="969.0" type="line"/>
      <point x="233.5" y="952.5"/>
      <point x="162.0" y="870.0"/>
      <point x="162.0" y="763.5" type="curve" smooth="yes"/>
      <point x="162.0" y="680.5"/>
      <point x="200.5" y="616.5"/>
      <point x="296.0" y="574.5" type="curve" smooth="yes"/>
      <point x="440.5" y="510.5" type="line" smooth="yes"/>
      <point x="497.0" y="485.5"/>
      <point x="556.5" y="455.0"/>
      <point x="556.5" y="385.5" type="curve" smooth="yes"/>
      <point x="556.5" y="349.0"/>
      <point x="539.5" y="316.5"/>
      <point x="510.5" y="296.5" type="curve"/>
    </contour>
    <contour>
      <point x="543.0" y="763.5" type="curve"/>
      <point x="584.5" y="897.5" type="line"/>
      <point x="551.0" y="933.0"/>
      <point x="482.5" y="967.0"/>
      <point x="407.5" y="971.5" type="curve"/>
      <point x="407.5" y="855.5" type="line"/>
      <point x="458.5" y="847.5"/>
      <point x="511.5" y="812.0"/>
    </contour>
  </outline>
</glyph>
<glyph name="degree" format="2">
  <advance width="480.0"/>
  <unicode hex="00B0"/>
  <outline>
    <contour>
      <point x="270.0" y="545.0" type="line"/>
      <point x="364.5" y="559.0"/>
      <point x="433.5" y="635.5"/>
      <point x="433.5" y="727.5" type="curve" smooth="yes"/>
      <point x="433.5" y="819.5"/>
      <point x="364.0" y="896.0"/>
      <point x="270.0" y="910.0" type="curve"/>
      <point x="270.0" y="814.5" type="line"/>
      <point x="310.5" y="802.0"/>
      <point x="337.0" y="768.0"/>
      <point x="337.0" y="727.5" type="curve" smooth="yes"/>
      <point x="337.0" y="687.0"/>
      <point x="310.5" y="653.0"/>
      <point x="270.0" y="640.5" type="curve"/>
    </contour>
    <contour>
      <point x="210.0" y="545.0" type="curve"/>
      <point x="210.0" y="640.5" type="line"/>
      <point x="169.5" y="653.0"/>
      <point x="143.0" y="687.0"/>
      <point x="143.0" y="727.5" type="curve" smooth="yes"/>
      <point x="143.0" y="768.0"/>
      <point x="169.0" y="802.0"/>
      <point x="210.0" y="814.5" type="curve"/>
      <point x="210.0" y="910.0" type="line"/>
      <point x="115.5" y="896.0"/>
      <point x="46.5" y="819.5"/>
      <point x="46.5" y="727.5" type="curve" smooth="yes"/>
      <point x="46.5" y="635.5"/>
      <point x="115.5" y="559.0"/>
    </contour>
  </outline>
</glyph>
<glyph name="paragraph" format="2">
  <advance width="750.0"/>
  <unicode hex="00B6"/>
  <outline>
    <contour>
      <point x="363.0" y="373.5" type="curve"/>
      <point x="423.0" y="373.5" type="line"/>
      <point x="423.0" y="960.0" type="line"/>
      <point x="363.0" y="960.0" type="line" smooth="yes"/>
      <point x="125.0" y="960.0"/>
      <point x="39.0" y="796.5"/>
      <point x="39.0" y="665.0" type="curve" smooth="yes"/>
      <point x="39.0" y="547.5"/>
      <point x="119.0" y="383.5"/>
    </contour>
    <contour>
      <point x="303.0" y="-180.0" type="line"/>
      <point x="423.0" y="-180.0" type="line"/>
      <point x="423.0" y="319.5" type="line"/>
      <point x="303.0" y="319.5" type="line"/>
    </contour>
    <contour>
      <point x="537.0" y="-180.0" type="line"/>
      <point x="657.0" y="-180.0" type="line"/>
      <point x="657.0" y="960.0" type="line"/>
      <point x="483.0" y="960.0" type="line"/>
      <point x="483.0" y="849.0" type="line"/>
      <point x="537.0" y="849.0" type="line"/>
    </contour>
  </outline>
</glyph>
<glyph name="AE" format="2">
  <advance width="1030.0"/>
  <unicode hex="00C6"/>
  <anchor x="639.5" y="0.0" name="bottom"/>
  <anchor x="857.0" y="0.0" name="ogonek"/>
  <anchor x="484.5525" y="900.0" name="top"/>
  <anchor x="125.0" y="720.0" name="top-vertical"/>
  <anchor x="404.0525" y="900.0" name="topleft"/>
  <outline>
    <contour>
      <point x="627.0" y="0.0" type="line"/>
      <point x="771.5" y="0.0" type="line"/>
      <point x="479.0" y="900.0" type="line"/>
      <point x="392.0" y="900.0" type="line"/>
      <point x="360.0" y="824.5" type="line"/>
    </contour>
    <contour>
      <point x="15.0" y="0.0" type="line"/>
      <point x="160.0" y="0.0" type="line"/>
      <point x="385.5" y="554.0" type="line"/>
      <point x="324.5" y="740.0" type="line"/>
    </contour>
    <contour>
      <point x="310.0" y="213.5" type="line"/>
      <point x="604.5" y="213.5" type="line"/>
      <point x="561.0" y="333.0" type="line"/>
      <point x="359.0" y="333.0" type="line"/>
    </contour>
    <contour>
      <point x="831.0" y="0.0" type="line"/>
      <point x="1003.0" y="0.0" type="line"/>
      <point x="1003.0" y="132.0" type="line"/>
      <point x="788.0" y="132.0" type="line"/>
    </contour>
    <contour>
      <point x="675.5" y="480.0" type="line"/>
      <point x="829.0" y="480.0" type="line"/>
      <point x="829.0" y="606.0" type="line"/>
      <point x="634.5" y="606.0" type="line"/>
    </contour>
    <contour>
      <point x="581.5" y="771.0" type="line"/>
      <point x="799.0" y="771.0" type="line"/>
      <point x="799.0" y="900.0" type="line"/>
      <point x="539.0" y="900.0" type="line"/>
    </contour>
  </outline>
</glyph>
<glyph name="germandbls" format="2">
  <advance width="705.0"/>
  <unicode hex="00DF"/>
  <outline>
    <contour>
      <point x="81.0" y="0.0" type="line"/>
      <point x="222.0" y="0.0" type="line"/>
      <point x="222.0" y="722.5" type="line" smooth="yes"/>
      <point x="222.0" y="784.5"/>
      <point x="256.0" y="830.0"/>
      <point x="304.5" y="843.0" type="curve"/>
      <point x="304.5" y="974.5" type="line"/>
      <point x="178.5" y="961.5"/>
      <point x="81.0" y="865.0"/>
      <point x="81.0" y="723.0" type="curve" smooth="yes"/>
    </contour>
    <contour>
      <point x="362.5" y="-14.5" type="line"/>
      <point x="529.5" y="-7.5"/>
      <point x="675.0" y="134.0"/>
      <point x="675.0" y="317.5" type="curve" smooth="yes"/>
      <point x="675.0" y="418.5"/>
      <point x="631.0" y="505.5"/>
      <point x="561.0" y="564.0" type="curve"/>
      <point x="530.5" y="532.0"/>
      <point x="493.0" y="506.0"/>
      <point x="448.5" y="483.5" type="curve"/>
      <point x="500.5" y="439.0"/>
      <point x="528.0" y="383.5"/>
      <point x="528.0" y="316.5" type="curve" smooth="yes"/>
      <point x="528.0" y="198.5"/>
      <point x="442.5" y="119.5"/>
      <point x="332.0" y="114.5" type="curve"/>
    </contour>
    <contour>
      <point x="397.0" y="521.0" type="curve"/>
      <point x="545.5" y="594.5"/>
      <point x="580.0" y="673.0"/>
      <point x="580.0" y="748.0" type="curve" smooth="yes"/>
      <point x="580.0" y="868.0"/>
      <point x="489.0" y="961.0"/>
      <point x="364.5" y="974.0" type="curve"/>
      <point x="364.5" y="843.0" type="line"/>
      <point x="412.5" y="830.0"/>
      <point x="445.0" y="787.5"/>
      <point x="445.0" y="734.0" type="curve" smooth="yes"/>
      <point x="445.0" y="670.0"/>
      <point x="396.0" y="609.5"/>
      <point x="306.0" y="563.0" type="curve"/>
      <point x="339.5" y="551.0"/>
      <point x="370.0" y="537.0"/>
    </contour>
  </outline>
</glyph>
<glyph name="ae" format="2">
  <advance width="1140.0"/>
  <unicode hex="00E6"/>
  <anchor x="570.0" y="0.0" name="bottom"/>
  <anchor x="570.0" y="600.0" name="top"/>
  <outline>
    <contour>
      <point x="283.0" y="-11.0" type="curve"/>
      <point x="283.0" y="100.0" type="line"/>
      <point x="217.5" y="104.0"/>
      <point x="180.0" y="139.0"/>
      <point x="180.0" y="185.5" type="curve" smooth="yes"/>
      <point x="180.0" y="241.5"/>
      <point x="235.5" y="273.0"/>
      <point x="320.5" y="273.0" type="curve" smooth="yes"/>
      <point x="354.0" y="273.0"/>
      <point x="390.0" y="268.0"/>
      <point x="423.5" y="259.5" type="curve"/>
      <point x="598.5" y="259.5" type="line"/>
      <point x="595.5" y="273.5"/>
      <point x="594.0" y="288.5"/>
      <point x="594.0" y="304.0" type="curve"/>
      <point x="586.5" y="304.0" type="line"/>
      <point x="586.5" y="403.5"/>
      <point x="651.0" y="483.5"/>
      <point x="740.0" y="496.5" type="curve"/>
      <point x="740.0" y="615.0" type="line"/>
      <point x="667.0" y="607.5"/>
      <point x="603.0" y="575.0"/>
      <point x="554.5" y="526.0" type="curve"/>
      <point x="508.5" y="578.5"/>
      <point x="434.5" y="609.5"/>
      <point x="345.0" y="613.5" type="curve"/>
      <point x="345.0" y="496.0" type="line"/>
      <point x="428.5" y="486.5"/>
      <point x="478.0" y="435.5"/>
      <point x="485.5" y="372.5" type="curve"/>
      <point x="480.5" y="344.0" type="line"/>
      <point x="428.0" y="368.5"/>
      <point x="370.5" y="381.0"/>
      <point x="307.5" y="381.0" type="curve" smooth="yes"/>
      <point x="153.5" y="381.0"/>
      <point x="45.0" y="305.0"/>
      <point x="45.0" y="184.0" type="curve" smooth="yes"/>
      <point x="45.0" y="66.0"/>
      <point x="141.0" y="-11.0"/>
    </contour>
    <contour>
      <point x="740.0" y="-12.5" type="curve"/>
      <point x="740.0" y="113.5" type="line"/>
      <point x="686.5" y="127.0"/>
      <point x="643.5" y="160.5"/>
      <point x="619.0" y="205.5" type="curve"/>
      <point x="480.5" y="205.5" type="line"/>
      <point x="459.0" y="156.0"/>
      <point x="405.5" y="118.0"/>
      <point x="345.0" y="105.0" type="curve"/>
      <point x="345.0" y="-5.5" type="line"/>
      <point x="421.0" y="7.0"/>
      <point x="487.5" y="44.0"/>
      <point x="534.0" y="103.0" type="curve"/>
      <point x="582.5" y="42.0"/>
      <point x="654.0" y="0.0"/>
    </contour>
    <contour>
      <point x="122.5" y="421.0" type="line"/>
      <point x="163.5" y="459.5"/>
      <point x="218.5" y="488.5"/>
      <point x="283.0" y="495.0" type="curve"/>
      <point x="283.0" y="612.5" type="line"/>
      <point x="211.0" y="605.5"/>
      <point x="144.5" y="581.5"/>
      <point x="91.0" y="548.0" type="curve"/>
    </contour>
    <contour>
      <point x="802.0" y="-16.0" type="line"/>
      <point x="880.0" y="-15.0"/>
      <point x="954.5" y="10.0"/>
      <point x="1012.0" y="55.0" type="curve"/>
      <point x="978.0" y="194.5" type="line"/>
      <point x="939.5" y="144.5"/>
      <point x="876.0" y="108.5"/>
      <point x="802.0" y="107.0" type="curve"/>
    </contour>
    <contour>
      <point x="543.0" y="259.5" type="line"/>
      <point x="1076.0" y="259.5" type="line"/>
      <point x="1076.0" y="312.0" type="line" smooth="yes"/>
      <point x="1076.0" y="474.5"/>
      <point x="957.5" y="600.0"/>
      <point x="802.0" y="614.5" type="curve"/>
      <point x="802.0" y="496.0" type="line"/>
      <point x="889.0" y="482.0"/>
      <point x="951.5" y="407.0"/>
      <point x="951.5" y="306.5" type="curve"/>
      <point x="977.0" y="353.5" type="line"/>
      <point x="937.0" y="363.0"/>
      <point x="897.0" y="367.5"/>
      <point x="851.5" y="367.5" type="curve" smooth="yes"/>
      <point x="696.5" y="367.5" type="line"/>
      <point x="644.5" y="367.5"/>
      <point x="594.5" y="359.5"/>
      <point x="542.5" y="347.5" type="curve"/>
    </contour>
  </outline>
</glyph>
<glyph name="divide" format="2">
  <advance width="750.0"/>
  <unicode hex="00F7"/>
  <outline>
    <contour>
      <point x="55.0" y="391.5" type="line"/>
      <point x="695.0" y="391.5" type="line"/>
      <point x="695.0" y="508.5" type="line"/>
      <point x="55.0" y="508.5" type="line"/>
    </contour>
    <contour>
      <point x="375.0" y="141.0" type="curve" smooth="yes"/>
      <point x="423.5" y="141.0"/>
      <point x="459.0" y="177.5"/>
      <point x="459.0" y="225.0" type="curve" smooth="yes"/>
      <point x="459.0" y="272.5"/>
      <point x="423.5" y="309.0"/>
      <point x="375.0" y="309.0" type="curve" smooth="yes"/>
      <point x="327.5" y="309.0"/>
      <point x="291.0" y="272.5"/>
      <point x="291.0" y="225.0" type="curve" smooth="yes"/>
      <point x="291.0" y="177.5"/>
      <point x="327.5" y="141.0"/>
    </contour>
    <contour>
      <point x="375.0" y="591.0" type="curve" smooth="yes"/>
      <point x="423.5" y="591.0"/>
      <point x="459.0" y="627.5"/>
      <point x="459.0" y="675.0" type="curve" smooth="yes"/>
      <point x="459.0" y="722.5"/>
      <point x="423.5" y="759.0"/>
      <point x="375.0" y="759.0" type="curve" smooth="yes"/>
      <point x="327.5" y="759.0"/>
      <point x="291.0" y="722.5"/>
      <point x="291.0" y="675.0" type="curve" smooth="yes"/>
      <point x="291.0" y="627.5"/>
      <point x="327.5" y="591.0"/>
    </contour>
  </outline>
</glyph>
<glyph name="oslash" format="2">
  <advance width="730.0"/>
  <unicode hex="00F8"/>
  <anchor x="365.0" y="0.0" name="bottom"/>
  <anchor x="365.0" y="300.0" name="center"/>
  <anchor x="528.5" y="5.0" name="ogonek"/>
  <anchor x="365.0" y="600.0" name="top"/>
  <anchor x="635.5" y="600.0" name="topright"/>
  <outline>
    <contour>
      <point x="152.0" y="-21.5" type="line"/>
      <point x="641.0" y="560.5" type="line"/>
      <point x="572.0" y="620.5" type="line"/>
      <point x="83.0" y="38.5" type="line"/>
    </contour>
    <contour>
      <point x="365.0" y="-16.0" type="curve" smooth="yes"/>
      <point x="542.0" y="-16.0"/>
      <point x="685.0" y="125.0"/>
      <point x="685.0" y="300.0" type="curve" smooth="yes"/>
      <point x="685.0" y="364.0"/>
      <point x="666.0" y="422.5"/>
      <point x="634.0" y="472.0" type="curve"/>
      <point x="543.5" y="365.5" type="line"/>
      <point x="551.0" y="345.5"/>
      <point x="555.5" y="323.0"/>
      <point x="555.5" y="300.0" type="curve" smooth="yes"/>
      <point x="555.5" y="193.5"/>
      <point x="470.0" y="107.0"/>
      <point x="365.0" y="107.0" type="curve" smooth="yes"/>
      <point x="319.0" y="107.0"/>
      <point x="277.5" y="123.5"/>
      <point x="244.5" y="150.5" type="curve"/>
      <point x="165.5" y="52.5" type="line"/>
      <point x="220.0" y="10.0"/>
      <point x="289.5" y="-16.0"/>
    </contour>
    <contour>
      <point x="94.5" y="131.0" type="curve"/>
      <point x="185.5" y="238.5" type="line"/>
      <point x="178.5" y="258.0"/>
      <point x="174.5" y="278.5"/>
      <point x="174.5" y="300.0" type="curve" smooth="yes"/>
      <point x="174.5" y="406.5"/>
      <point x="259.0" y="493.0"/>
      <point x="365.0" y="493.0" type="curve" smooth="yes"/>
      <point x="410.0" y="493.0"/>
      <point x="452.0" y="476.5"/>
      <point x="485.0" y="449.5" type="curve"/>
      <point x="565.0" y="547.0" type="line"/>
      <point x="510.0" y="590.0"/>
      <point x="441.0" y="616.0"/>
      <point x="365.0" y="616.0" type="curve" smooth="yes"/>
      <point x="188.0" y="616.0"/>
      <point x="45.0" y="475.0"/>
      <point x="45.0" y="300.0" type="curve" smooth="yes"/>
      <point x="45.0" y="238.0"/>
      <point x="63.0" y="179.5"/>
    </contour>
  </outline>
</glyph>
<glyph name="thorn" format="2">
  <advance width="750.0"/>
  <unicode hex="00FE"/>
  <outline>
    <contour>
      <point x="405.0" y="-12.0" type="curve" smooth="yes"/>
      <point x="571.0" y="-12.0"/>
      <point x="705.0" y="128.0"/>
      <point x="705.0" y="300.0" type="curve" smooth="yes"/>
      <point x="705.0" y="472.0"/>
      <point x="571.0" y="612.0"/>
      <point x="405.0" y="612.0" type="curve" smooth="yes"/>
      <point x="360.5" y="612.0"/>
      <point x="319.0" y="602.0"/>
      <point x="282.0" y="584.5" type="curve"/>
      <point x="282.0" y="451.5" type="line"/>
      <point x="311.5" y="473.5"/>
      <point x="348.0" y="486.5"/>
      <point x="388.0" y="486.5" type="curve" smooth="yes"/>
      <point x="489.0" y="486.5"/>
      <point x="570.0" y="403.0"/>
      <point x="570.0" y="300.0" type="curve" smooth="yes"/>
      <point x="570.0" y="197.0"/>
      <point x="489.0" y="113.5"/>
      <point x="388.0" y="113.5" type="curve" smooth="yes"/>
      <point x="348.0" y="113.5"/>
      <point x="311.5" y="126.5"/>
      <point x="282.0" y="148.5" type="curve"/>
      <point x="282.0" y="15.5" type="line"/>
      <point x="319.0" y="-2.0"/>
      <point x="360.5" y="-12.0"/>
    </contour>
    <contour>
      <point x="81.0" y="-300.0" type="line"/>
      <point x="222.0" y="-300.0" type="line"/>
      <point x="222.0" y="960.0" type="line"/>
      <point x="81.0" y="960.0" type="line"/>
    </contour>
  </outline>
</glyph>
<glyph name="Lslash" format="2">
  <advance width="630.0"/>
  <unicode hex="0141"/>
  <outline>
    <contour>
      <point x="64.0" y="309.0" type="line"/>
      <point x="525.0" y="587.0" type="line"/>
      <point x="476.0" y="669.0" type="line"/>
      <point x="291.0" y="556.5" type="line"/>
      <point x="291.0" y="900.0" type="line"/>
      <point x="141.0" y="900.0" type="line"/>
      <point x="141.0" y="467.5" type="line"/>
      <point x="15.0" y="391.0" type="line"/>
    </contour>
    <contour>
      <point x="141.0" y="0.0" type="line"/>
      <point x="291.0" y="0.0" type="line"/>
      <point x="291.0" y="376.5" type="line"/>
      <point x="141.0" y="288.0" type="line"/>
    </contour>
    <contour>
      <point x="351.0" y="0.0" type="line"/>
      <point x="582.0" y="0.0" type="line"/>
      <point x="582.0" y="132.0" type="line"/>
      <point x="351.0" y="132.0" type="line"/>
    </contour>
  </outline>
</glyph>
<glyph name="OE" format="2">
  <advance width="1350.0"/>
  <unicode hex="0152"/>
  <anchor x="530.0" y="0.0" name="bottom"/>
  <anchor x="530.0" y="450.0" name="center"/>
  <anchor x="530.0" y="0.0" name="ogonek"/>
  <anchor x="530.0" y="900.0" name="top"/>
  <anchor x="530.0" y="510.0" name="top-vertical"/>
  <anchor x="60.0" y="900.0" name="topleft"/>
  <anchor x="1000.0" y="900.0" name="topright"/>
  <outline>
    <contour>
      <point x="497.5" y="-17.0" type="curve"/>
      <point x="497.5" y="124.5" type="line"/>
      <point x="333.5" y="141.0"/>
      <point x="210.0" y="280.5"/>
      <point x="210.0" y="450.0" type="curve" smooth="yes"/>
      <point x="210.0" y="619.5"/>
      <point x="333.5" y="759.0"/>
      <point x="497.5" y="775.5" type="curve"/>
      <point x="497.5" y="917.0" type="line"/>
      <point x="251.0" y="901.0"/>
      <point x="57.0" y="698.5"/>
      <point x="57.0" y="450.0" type="curve" smooth="yes"/>
      <point x="57.0" y="201.5"/>
      <point x="253.0" y="-0.5"/>
    </contour>
    <contour>
      <point x="561.5" y="-17.0" type="line"/>
      <point x="680.0" y="-9.0"/>
      <point x="785.5" y="48.5"/>
      <point x="854.5" y="143.5" type="curve"/>
      <point x="834.0" y="160.5" type="line"/>
      <point x="834.0" y="0.0" type="line"/>
      <point x="975.0" y="0.0" type="line"/>
      <point x="975.0" y="900.0" type="line"/>
      <point x="834.0" y="900.0" type="line"/>
      <point x="834.0" y="739.5" type="line"/>
      <point x="854.5" y="756.5" type="line"/>
      <point x="785.5" y="851.5"/>
      <point x="680.0" y="909.0"/>
      <point x="561.5" y="917.0" type="curve"/>
      <point x="561.5" y="775.5" type="line"/>
      <point x="726.0" y="759.5"/>
      <point x="850.0" y="620.5"/>
      <point x="850.0" y="450.0" type="curve" smooth="yes"/>
      <point x="850.0" y="279.5"/>
      <point x="726.0" y="140.5"/>
      <point x="561.5" y="124.5" type="curve"/>
    </contour>
    <contour>
      <point x="1035.0" y="0.0" type="line"/>
      <point x="1293.0" y="0.0" type="line"/>
      <point x="1293.0" y="132.0" type="line"/>
      <point x="1035.0" y="132.0" type="line"/>
    </contour>
    <contour>
      <point x="1035.0" y="480.0" type="line"/>
      <point x="1223.0" y="480.0" type="line"/>
      <point x="1223.0" y="606.0" type="line"/>
      <point x="1035.0" y="606.0" type="line"/>
    </contour>
    <contour>
      <point x="1035.0" y="771.0" type="line"/>
      <point x="1293.0" y="771.0" type="line"/>
      <point x="1293.0" y="900.0" type="line"/>
      <point x="1035.0" y="900.0" type="line"/>
    </contour>
  </outline>
</glyph>
<glyph name="tbar" format="2">
  <advance width="450.0"/>
  <unicode hex="0167"/>
  <outline>
    <contour>
      <point x="27.0" y="486.0" type="line"/>
      <point x="423.0" y="486.0" type="line"/>
      <point x="423.0" y="600.0" type="line"/>
      <point x="287.5" y="600.0" type="line"/>
      <point x="287.5" y="800.0" type="line"/>
      <point x="152.5" y="800.0" type="line"/>
      <point x="152.5" y="600.0" type="line"/>
      <point x="27.0" y="600.0" type="line"/>
    </contour>
    <contour>
      <point x="149.5" y="0.0" type="line"/>
      <point x="290.5" y="0.0" type="line"/>
      <point x="290.5" y="202.0" type="line"/>
      <point x="149.5" y="202.0" type="line"/>
    </contour>
    <contour>
      <point x="30.0" y="256.0" type="line"/>
      <point x="410.0" y="256.0" type="line"/>
      <point x="410.0" y="344.0" type="line"/>
      <point x="290.5" y="344.0" type="line"/>
      <point x="290.5" y="432.0" type="line"/>
      <point x="149.5" y="432.0" type="line"/>
      <point x="149.5" y="344.0" type="line"/>
      <point x="30.0" y="344.0" type="line"/>
    </contour>
  </outline>
</glyph>
<glyph name="Uhorn" format="2">
  <advance width="930.0"/>
  <unicode hex="01AF"/>
  <anchor x="400.0" y="0.0" name="bottom"/>
  <anchor x="400.0" y="900.0" name="top"/>
  <outline>
    <contour>
      <point x="434.5" y="-15.5" type="line"/>
      <point x="598.0" y="-2.5"/>
      <point x="710.0" y="116.5"/>
      <point x="710.0" y="296.5" type="curve" smooth="yes"/>
      <point x="710.0" y="900.0" type="line"/>
      <point x="565.0" y="900.0" type="line"/>
      <point x="565.0" y="294.5" type="line" smooth="yes"/>
      <point x="565.0" y="201.0"/>
      <point x="511.5" y="136.0"/>
      <point x="434.5" y="123.5" type="curve"/>
    </contour>
    <contour>
      <point x="366.5" y="-15.5" type="curve"/>
      <point x="366.5" y="123.5" type="line"/>
      <point x="291.0" y="138.0"/>
      <point x="240.0" y="204.0"/>
      <point x="240.0" y="299.5" type="curve" smooth="yes"/>
      <point x="240.0" y="900.0" type="line"/>
      <point x="90.0" y="900.0" type="line"/>
      <point x="90.0" y="293.0" type="line" smooth="yes"/>
      <point x="90.0" y="115.5"/>
      <point x="204.0" y="-3.0"/>
    </contour>
    <contour>
      <point x="764.0" y="689.0" type="line"/>
      <point x="843.5" y="692.0"/>
      <point x="916.0" y="755.0"/>
      <point x="916.0" y="867.0" type="curve" smooth="yes"/>
      <point x="916.0" y="896.5"/>
      <point x="911.0" y="927.5"/>
      <point x="892.0" y="960.0" type="curve"/>
      <point x="775.0" y="960.0" type="line"/>
      <point x="794.0" y="927.0"/>
      <point x="799.0" y="892.0"/>
      <point x="799.0" y="868.0" type="curve" smooth="yes"/>
      <point x="799.0" y="834.0"/>
      <point x="786.0" y="808.0"/>
      <point x="764.0" y="796.5" type="curve"/>
    </contour>
  </outline>
</glyph>
<glyph name="ezh" format="2">
  <advance width="660.0"/>
  <unicode hex="0292"/>
  <anchor x="303.5" y="-330.0" name="bottom"/>
  <anchor x="321.5" y="600.0" name="top"/>
  <outline>
    <contour>
      <point x="326.5" y="-315.0" type="line"/>
      <point x="488.5" y="-300.0"/>
      <point x="619.0" y="-170.5"/>
      <point x="619.0" y="-5.0" type="curve" smooth="yes"/>
      <point x="619.0" y="136.5"/>
      <point x="522.5" y="248.5"/>
      <point x="398.0" y="283.0" type="curve"/>
      <point x="568.0" y="600.0" type="line"/>
      <point x="421.5" y="600.0" type="line"/>
      <point x="190.0" y="150.5" type="line"/>
      <point x="222.5" y="168.0"/>
      <point x="256.5" y="178.0"/>
      <point x="295.0" y="178.0" type="curve" smooth="yes"/>
      <point x="401.5" y="178.0"/>
      <point x="480.0" y="97.0"/>
      <point x="480.0" y="-2.5" type="curve" smooth="yes"/>
      <point x="480.0" y="-94.0"/>
      <point x="414.0" y="-168.5"/>
      <point x="326.5" y="-182.0" type="curve"/>
    </contour>
    <contour>
      <point x="267.0" y="-315.0" type="curve"/>
      <point x="267.0" y="-181.5" type="line"/>
      <point x="183.5" y="-168.5"/>
      <point x="119.5" y="-101.5"/>
      <point x="103.5" y="-18.0" type="curve"/>
      <point x="25.0" y="-173.0" type="line"/>
      <point x="76.5" y="-252.5"/>
      <point x="164.5" y="-306.5"/>
    </contour>
    <contour>
      <point x="88.0" y="474.0" type="line"/>
      <point x="291.0" y="474.0" type="line"/>
      <point x="355.5" y="600.0" type="line"/>
      <point x="88.0" y="600.0" type="line"/>
    </contour>
  </outline>
</glyph>
<glyph name="gravecomb" format="2">
  <unicode hex="0300"/>
  <anchor x="422.0" y="600.0" name="_top"/>
  <outline>
    <contour>
      <point x="365.5" y="690.0" type="line"/>
      <point x="479.5" y="690.0" type="line"/>
      <point x="394.0" y="870.0" type="line"/>
      <point x="236.5" y="870.0" type="line"/>
    </contour>
  </outline>
</glyph>
<glyph name="circumflexcomb" format="2">
  <unicode hex="0302"/>
  <anchor x="360.0" y="600.0" name="_top"/>
  <outline>
    <contour>
      <point x="156.0" y="684.0" type="line"/>
      <point x="290.0" y="684.0" type="line"/>
      <point x="315.0" y="710.0"/>
      <point x="333.5" y="735.5"/>
      <point x="358.0" y="770.5" type="curve"/>
      <point x="382.5" y="735.5"/>
      <point x="401.0" y="710.0"/>
      <point x="426.0" y="684.0" type="curve"/>
      <point x="564.0" y="684.0" type="line"/>
      <point x="360.0" y="915.0" type="line"/>
    </contour>
  </outline>
</glyph>
<glyph name="dieresiscomb" format="2">
  <unicode hex="0308"/>
  <anchor x="360.0" y="600.0" name="_top"/>
  <outline>
    <contour>
      <point x="234.0" y="700.5" type="curve" smooth="yes"/>
      <point x="279.0" y="700.5"/>
      <point x="313.5" y="736.0"/>
      <point x="313.5" y="780.0" type="curve" smooth="yes"/>
      <point x="313.5" y="825.0"/>
      <point x="279.0" y="859.5"/>
      <point x="234.0" y="859.5" type="curve" smooth="yes"/>
      <point x="190.0" y="859.5"/>
      <point x="154.5" y="825.0"/>
      <point x="154.5" y="780.0" type="curve" smooth="yes"/>
      <point x="154.5" y="736.0"/>
      <point x="190.0" y="700.5"/>
    </contour>
    <contour>
      <point x="486.0" y="700.5" type="curve" smooth="yes"/>
      <point x="531.0" y="700.5"/>
      <point x="565.5" y="736.0"/>
      <point x="565.5" y="780.0" type="curve" smooth="yes"/>
      <point x="565.5" y="825.0"/>
      <point x="531.0" y="859.5"/>
      <point x="486.0" y="859.5" type="curve" smooth="yes"/>
      <point x="442.0" y="859.5"/>
      <point x="406.5" y="825.0"/>
      <point x="406.5" y="780.0" type="curve" smooth="yes"/>
      <point x="406.5" y="736.0"/>
      <point x="442.0" y="700.5"/>
    </contour>
  </outline>
</glyph>
<glyph name="hookabovecomb" format="2">
  <unicode hex="0309"/>
  <anchor x="360.0" y="600.0" name="_top"/>
  <outline>
    <contour>
      <point x="317.0" y="684.0" type="curve"/>
      <point x="438.0" y="684.0" type="line"/>
      <point x="463.0" y="712.5"/>
      <point x="485.5" y="748.5"/>
      <point x="485.5" y="795.5" type="curve" smooth="yes"/>
      <point x="485.5" y="870.5"/>
      <point x="419.0" y="915.5"/>
      <point x="338.5" y="915.5" type="curve" smooth="yes"/>
      <point x="293.5" y="915.5"/>
      <point x="248.5" y="901.0"/>
      <point x="222.0" y="880.0" type="curve"/>
      <point x="247.5" y="785.5" type="line"/>
      <point x="263.0" y="803.5"/>
      <point x="288.5" y="820.5"/>
      <point x="314.5" y="820.5" type="curve" smooth="yes"/>
      <point x="346.5" y="820.5"/>
      <point x="366.5" y="801.0"/>
      <point x="366.5" y="774.0" type="curve" smooth="yes"/>
      <point x="366.5" y="750.0"/>
      <point x="349.0" y="721.0"/>
    </contour>
  </outline>
</glyph>
<glyph name="dieresisbelowcomb" format="2">
  <unicode hex="0324"/>
  <anchor x="360.0" y="0.0" name="_top"/>
  <outline>
    <contour>
      <point x="480.0" y="-249.0" type="curve" smooth="yes"/>
      <point x="518.0" y="-249.0"/>
      <point x="549.0" y="-219.0"/>
      <point x="549.0" y="-180.0" type="curve" smooth="yes"/>
      <point x="549.0" y="-142.0"/>
      <point x="518.0" y="-111.0"/>
      <point x="480.0" y="-111.0" type="curve" smooth="yes"/>
      <point x="441.0" y="-111.0"/>
      <point x="411.0" y="-142.0"/>
      <point x="411.0" y="-180.0" type="curve" smooth="yes"/>
      <point x="411.0" y="-219.0"/>
      <point x="441.0" y="-249.0"/>
    </contour>
    <contour>
      <point x="240.0" y="-249.0" type="curve" smooth="yes"/>
      <point x="278.0" y="-249.0"/>
      <point x="309.0" y="-219.0"/>
      <point x="309.0" y="-180.0" type="curve" smooth="yes"/>
      <point x="309.0" y="-142.0"/>
      <point x="278.0" y="-111.0"/>
      <point x="240.0" y="-111.0" type="curve" smooth="yes"/>
      <point x="201.0" y="-111.0"/>
      <point x="171.0" y="-142.0"/>
      <point x="171.0" y="-180.0" type="curve" smooth="yes"/>
      <point x="171.0" y="-219.0"/>
      <point x="201.0" y="-249.0"/>
    </contour>
  </outline>
</glyph>
<glyph name="cedillacomb" format="2">
  <unicode hex="0327"/>
  <anchor x="432.0" y="0.0" name="_bottom"/>
  <anchor x="272.0" y="-240.0" name="bottom"/>
  <outline>
    <contour>
      <point x="176.0" y="-246.0" type="line"/>
      <point x="355.0" y="-246.0" type="line"/>
      <point x="484.5" y="-72.0" type="line"/>
      <point x="352.5" y="-72.0" type="line"/>
    </contour>
  </outline>
</glyph>
<glyph name="dagger" format="2">
  <advance width="600.0"/>
  <unicode hex="2020"/>
  <outline>
    <contour>
      <point x="66.0" y="574.0" type="line"/>
      <point x="534.0" y="574.0" type="line"/>
      <point x="534.0" y="686.5" type="line"/>
      <point x="354.0" y="677.5" type="line"/>
      <point x="367.5" y="900.0" type="line"/>
      <point x="232.5" y="900.0" type="line"/>
      <point x="246.5" y="677.5" type="line"/>
      <point x="66.0" y="686.5" type="line"/>
    </contour>
    <contour>
      <point x="232.5" y="0.0" type="line"/>
      <point x="367.5" y="0.0" type="line"/>
      <point x="357.0" y="520.0" type="line"/>
      <point x="243.5" y="520.0" type="line"/>
    </contour>
  </outline>
</glyph>
<glyph name="guilsinglleft" format="2">
  <advance width="360.0"/>
  <unicode hex="2039"/>
  <outline>
    <contour>
      <point x="190.5" y="60.0" type="line"/>
      <point x="325.5" y="60.0" type="line"/>
      <point x="163.5" y="300.0" type="line"/>
      <point x="325.5" y="540.0" type="line"/>
      <point x="190.5" y="540.0" type="line"/>
      <point x="28.5" y="300.0" type="line"/>
    </contour>
  </outline>
</glyph>
<glyph name="fraction" format="2">
  <advance width="120.0"/>
  <unicode hex="2044"/>
  <outline>
    <contour>
      <point x="-313.0" y="0.0" type="line"/>
      <point x="-185.5" y="0.0" type="line"/>
      <point x="433.0" y="900.0" type="line"/>
      <point x="305.5" y="900.0" type="line"/>
    </contour>
  </outline>
</glyph>
<glyph name="euro" format="2">
  <advance width="750.0"/>
  <unicode hex="20AC"/>
  <outline>
    <contour>
      <point x="177.5" y="521.5" type="curve"/>
      <point x="318.5" y="521.5" type="line"/>
      <point x="331.0" y="648.5"/>
      <point x="376.0" y="752.0"/>
      <point x="456.0" y="779.5" type="curve"/>
      <point x="456.0" y="912.5" type="line"/>
      <point x="296.5" y="888.5"/>
      <point x="196.5" y="726.0"/>
    </contour>
    <contour>
      <point x="456.0" y="-12.5" type="curve"/>
      <point x="456.0" y="121.0" type="line"/>
      <point x="379.5" y="147.5"/>
      <point x="335.0" y="243.5"/>
      <point x="321.0" y="361.5" type="curve"/>
      <point x="179.5" y="361.5" type="line"/>
      <point x="202.5" y="165.0"/>
      <point x="300.5" y="12.0"/>
    </contour>
    <contour>
      <point x="81.0" y="306.0" type="line"/>
      <point x="549.0" y="306.0" type="line"/>
      <point x="549.0" y="402.0" type="line"/>
      <point x="81.0" y="402.0" type="line"/>
    </contour>
    <contour>
      <point x="516.0" y="-15.5" type="line"/>
      <point x="584.5" y="-11.5"/>
      <point x="646.5" y="17.5"/>
      <point x="696.0" y="65.5" type="curve"/>
      <point x="656.5" y="223.5" type="line"/>
      <point x="625.5" y="165.5"/>
      <point x="577.0" y="119.5"/>
      <point x="516.0" y="114.0" type="curve"/>
    </contour>
    <contour>
      <point x="81.0" y="498.0" type="line"/>
      <point x="549.0" y="498.0" type="line"/>
      <point x="549.0" y="594.0" type="line"/>
      <point x="81.0" y="594.0" type="line"/>
    </contour>
    <contour>
      <point x="656.5" y="677.0" type="curve"/>
      <point x="696.0" y="834.5" type="line"/>
      <point x="646.5" y="882.5"/>
      <point x="584.5" y="911.5"/>
      <point x="516.0" y="915.5" type="curve"/>
      <point x="516.0" y="786.0" type="line"/>
      <point x="577.0" y="780.0"/>
      <point x="625.5" y="734.0"/>
    </contour>
  </outline>
</glyph>
<glyph name="dek" format="2">
  <advance width="750.0"/>
  <unicode hex="218A"/>
  <outline>
    <contour>
      <point x="352.0" y="-14.5" type="curve"/>
      <point x="352.0" y="119.5" type="line"/>
      <point x="289.0" y="132.5"/>
      <point x="242.5" y="187.5"/>
      <point x="242.5" y="254.5" type="curve" smooth="yes"/>
      <point x="242.5" y="283.5"/>
      <point x="252.0" y="315.0"/>
      <point x="284.0" y="363.0" type="curve" smooth="yes"/>
      <point x="647.5" y="900.0" type="line"/>
      <point x="494.0" y="900.5" type="line"/>
      <point x="169.5" y="436.5" type="line" smooth="yes"/>
      <point x="121.0" y="367.5"/>
      <point x="101.5" y="315.0"/>
      <point x="101.5" y="254.5" type="curve" smooth="yes"/>
      <point x="101.5" y="113.5"/>
      <point x="213.0" y="-0.5"/>
    </contour>
    <contour>
      <point x="416.0" y="-14.0" type="line"/>
      <point x="555.0" y="0.5"/>
      <point x="662.5" y="116.0"/>
      <point x="662.5" y="254.0" type="curve" smooth="yes"/>
      <point x="662.5" y="296.0"/>
      <point x="652.0" y="335.0"/>
      <point x="631.0" y="374.0" type="curve"/>
      <point x="464.5" y="374.0" type="line"/>
      <point x="504.5" y="341.0"/>
      <point x="524.5" y="299.5"/>
      <point x="524.5" y="254.5" type="curve" smooth="yes"/>
      <point x="524.5" y="187.5"/>
      <point x="478.0" y="132.0"/>
      <point x="416.0" y="119.0" type="curve"/>
    </contour>
    <contour>
      <point x="87.5" y="768.0" type="line"/>
      <point x="334.5" y="768.0" type="line"/>
      <point x="427.5" y="900.0" type="line"/>
      <point x="87.5" y="900.0" type="line"/>
    </contour>
  </outline>
</glyph>
<glyph name="bulletoperator" format="2">
  <advance width="480.0"/>
  <unicode hex="2219"/>
  <outline>
    <contour>
      <point x="240.0" y="294.0" type="curve" smooth="yes"/>
      <point x="330.0" y="294.0"/>
      <point x="396.0" y="362.0"/>
      <point x="396.0" y="450.0" type="curve" smooth="yes"/>
      <point x="396.0" y="538.0"/>
      <point x="330.0" y="606.0"/>
      <point x="240.0" y="606.0" type="curve" smooth="yes"/>
      <point x="152.0" y="606.0"/>
      <point x="84.0" y="538.0"/>
      <point x="84.0" y="450.0" type="curve" smooth="yes"/>
      <point x="84.0" y="362.0"/>
      <point x="152.0" y="294.0"/>
    </contour>
  </outline>
</glyph>
<glyph name="approxequal" format="2">
  <advance width="750.0"/>
  <unicode hex="2248"/>
  <outline>
    <contour>
      <point x="98.5" y="452.0" type="line"/>
      <point x="127.5" y="515.5"/>
      <point x="171.0" y="558.0"/>
      <point x="233.0" y="558.0" type="curve" smooth="yes"/>
      <point x="320.0" y="558.0"/>
      <point x="402.5" y="474.0"/>
      <point x="513.5" y="474.0" type="curve" smooth="yes"/>
      <point x="595.0" y="474.0"/>
      <point x="668.0" y="519.5"/>
      <point x="707.5" y="598.0" type="curve"/>
      <point x="648.0" y="700.0" type="line"/>
      <point x="619.0" y="636.5"/>
      <point x="575.5" y="594.0"/>
      <point x="513.5" y="594.0" type="curve" smooth="yes"/>
      <point x="426.5" y="594.0"/>
      <point x="344.0" y="678.0"/>
      <point x="233.0" y="678.0" type="curve" smooth="yes"/>
      <point x="151.5" y="678.0"/>
      <point x="78.5" y="632.5"/>
      <point x="39.0" y="554.0" type="curve"/>
    </contour>
    <contour>
      <point x="98.5" y="200.0" type="line"/>
      <point x="127.5" y="263.5"/>
      <point x="171.0" y="306.0"/>
      <point x="233.0" y="306.0" type="curve" smooth="yes"/>
      <point x="320.0" y="306.0"/>
      <point x="402.5" y="222.0"/>
      <point x="513.5" y="222.0" type="curve" smooth="yes"/>
      <point x="595.0" y="222.0"/>
      <point x="668.0" y="267.5"/>
      <point x="707.5" y="346.0" type="curve"/>
      <point x="648.0" y="448.0" type="line"/>
      <point x="619.0" y="384.5"/>
      <point x="575.5" y="342.0"/>
      <point x="513.5" y="342.0" type="curve" smooth="yes"/>
      <point x="426.5" y="342.0"/>
      <point x="344.0" y="426.0"/>
      <point x="233.0" y="426.0" type="curve" smooth="yes"/>
      <point x="151.5" y="426.0"/>
      <point x="78.5" y="380.5"/>
      <point x="39.0" y="302.0" type="curve"/>
    </contour>
  </outline>
</glyph>
<glyph name="leftanglebracket-math" format="2">
  <advance width="480.0"/>
  <unicode hex="27E8"/>
  <outline>
    <contour>
      <point x="295.5" y="-180.0" type="line"/>
      <point x="438.0" y="-180.0" type="line"/>
      <point x="175.5" y="390.0" type="line"/>
      <point x="438.0" y="960.0" type="line"/>
      <point x="295.5" y="960.0" type="line"/>
      <point x="33.0" y="390.0" type="line"/>
    </contour>
  </outline>
</glyph>
<glyph name="H.bar" format="2">
  <advance width="800.0"/>
  <anchor x="400.0" y="0.0" name="bottom"/>
  <anchor x="400.0" y="720.0" name="center"/>
  <anchor x="400.0" y="900.0" name="top"/>
  <anchor x="126.0" y="900.0" name="topleft"/>
  <outline>
    <contour>
      <point x="545.0" y="0.0" type="line"/>
      <point x="689.0" y="0.0" type="line"/>
      <point x="689.0" y="900.0" type="line"/>
      <point x="545.0" y="900.0" type="line"/>
      <point x="545.0" y="561.0" type="line"/>
      <point x="315.0" y="561.0" type="line"/>
      <point x="315.0" y="429.0" type="line"/>
      <point x="545.0" y="429.0" type="line"/>
    </contour>
    <contour>
      <point x="111.0" y="0.0" type="line"/>
      <point x="255.0" y="0.0" type="line"/>
      <point x="255.0" y="900.0" type="line"/>
      <point x="111.0" y="900.0" type="line"/>
    </contour>
  </outline>
</glyph>
<glyph name="bracketleft.titl" format="2">
  <advance width="480.0"/>
  <outline>
    <contour>
      <point x="135.0" y="-180.0" type="line"/>
      <point x="420.0" y="-180.0" type="line"/>
      <point x="420.0" y="-118.0" type="line"/>
      <point x="202.0" y="-118.0" type="line"/>
      <point x="202.0" y="898.0" type="line"/>
      <point x="420.0" y="898.0" type="line"/>
      <point x="420.0" y="960.0" type="line"/>
      <point x="135.0" y="960.0" type="line"/>
    </contour>
  </outline>
</glyph>
<glyph name="careof.titl" format="2">
  <advance width="960.0"/>
  <outline>
    <contour>
      <point x="113.0" y="0.0" type="line"/>
      <point x="188.0" y="0.0" type="line"/>
      <point x="806.0" y="900.0" type="line"/>
      <point x="731.0" y="900.0" type="line"/>
    </contour>
    <contour>
      <point x="692.0" y="-13.0" type="curve"/>
      <point x="692.0" y="88.5" type="line"/>
      <point x="649.5" y="101.0"/>
      <point x="621.5" y="137.0"/>
      <point x="621.5" y="180.0" type="curve" smooth="yes"/>
      <point x="621.5" y="223.0"/>
      <point x="649.5" y="259.0"/>
      <point x="692.0" y="271.5" type="curve"/>
      <point x="692.0" y="373.0" type="line"/>
      <point x="592.0" y="359.0"/>
      <point x="518.0" y="277.5"/>
      <point x="518.0" y="180.0" type="curve" smooth="yes"/>
      <point x="518.0" y="82.5"/>
      <point x="592.0" y="1.0"/>
    </contour>
    <contour>
      <point x="212.0" y="527.0" type="curve"/>
      <point x="212.0" y="629.5" type="line"/>
      <point x="171.5" y="642.5"/>
      <point x="144.5" y="678.0"/>
      <point x="144.5" y="720.0" type="curve" smooth="yes"/>
      <point x="144.5" y="762.0"/>
      <point x="171.5" y="797.5"/>
      <point x="212.0" y="810.5" type="curve"/>
      <point x="212.0" y="913.0" type="line"/>
      <point x="113.0" y="900.0"/>
      <point x="38.0" y="818.5"/>
      <point x="38.0" y="720.0" type="curve" smooth="yes"/>
      <point x="38.0" y="621.5"/>
      <point x="113.0" y="540.0"/>
    </contour>
    <contour>
      <point x="268.0" y="526.0" type="line"/>
      <point x="306.0" y="528.0"/>
      <point x="341.0" y="539.0"/>
      <point x="371.0" y="558.0" type="curve"/>
      <point x="346.0" y="657.5" type="line"/>
      <point x="327.5" y="638.0"/>
      <point x="301.5" y="625.5"/>
      <point x="268.0" y="625.0" type="curve"/>
    </contour>
    <contour>
      <point x="748.0" y="-13.0" type="line"/>
      <point x="848.0" y="1.0"/>
      <point x="922.0" y="82.5"/>
      <point x="922.0" y="180.0" type="curve" smooth="yes"/>
      <point x="922.0" y="277.5"/>
      <point x="848.0" y="359.0"/>
      <point x="748.0" y="373.0" type="curve"/>
      <point x="748.0" y="271.5" type="line"/>
      <point x="789.5" y="259.0"/>
      <point x="818.5" y="223.0"/>
      <point x="818.5" y="180.0" type="curve" smooth="yes"/>
      <point x="818.5" y="137.0"/>
      <point x="789.5" y="101.0"/>
      <point x="748.0" y="88.5" type="curve"/>
    </contour>
    <contour>
      <point x="346.0" y="783.0" type="curve"/>
      <point x="371.0" y="882.0" type="line"/>
      <point x="341.0" y="901.0"/>
      <point x="306.0" y="912.0"/>
      <point x="268.0" y="914.0" type="curve"/>
      <point x="268.0" y="815.0" type="line"/>
      <point x="301.5" y="814.5"/>
      <point x="328.0" y="802.0"/>
    </contour>
  </outline>
</glyph>
<glyph name="dek.lf" format="2">
  <advance width="690.0"/>
  <outline>
    <contour>
      <point x="322.0" y="-14.5" type="curve"/>
      <point x="322.0" y="119.5" type="line"/>
      <point x="259.0" y="132.5"/>
      <point x="212.5" y="187.5"/>
      <point x="212.5" y="254.5" type="curve" smooth="yes"/>
      <point x="212.5" y="283.5"/>
      <point x="222.0" y="315.0"/>
      <point x="254.0" y="363.0" type="curve" smooth="yes"/>
      <point x="617.5" y="900.0" type="line"/>
      <point x="464.0" y="900.5" type="line"/>
      <point x="139.5" y="436.5" type="line" smooth="yes"/>
      <point x="91.0" y="367.5"/>
      <point x="71.5" y="315.0"/>
      <point x="71.5" y="254.5" type="curve" smooth="yes"/>
      <point x="71.5" y="113.5"/>
      <point x="183.0" y="-0.5"/>
    </contour>
    <contour>
      <point x="386.0" y="-14.0" type="line"/>
      <point x="525.0" y="0.5"/>
      <point x="632.5" y="116.0"/>
      <point x="632.5" y="254.0" type="curve" smooth="yes"/>
      <point x="632.5" y="296.0"/>
      <point x="622.0" y="335.0"/>
      <point x="601.0" y="374.0" type="curve"/>
      <point x="434.5" y="374.0" type="line"/>
      <point x="474.5" y="341.0"/>
      <point x="494.5" y="299.5"/>
      <point x="494.5" y="254.5" type="curve" smooth="yes"/>
      <point x="494.5" y="187.5"/>
      <point x="448.0" y="132.0"/>
      <point x="386.0" y="119.0" type="curve"/>
    </contour>
    <contour>
      <point x="57.5" y="768.0" type="line"/>
      <point x="304.5" y="768.0" type="line"/>
      <point x="397.5" y="900.0" type="line"/>
      <point x="57.5" y="900.0" type="line"/>
    </contour>
  </outline>
</glyph>
<glyph name="dieresiscomb.Odieresis.case" format="2">
  <anchor x="510.0" y="900.0" name="_top"/>
  <outline>
    <contour>
      <point x="234.0" y="912.0" type="curve" smooth="yes"/>
      <point x="282.0" y="912.0"/>
      <point x="318.0" y="948.0"/>
      <point x="318.0" y="996.0" type="curve" smooth="yes"/>
      <point x="318.0" y="1044.0"/>
      <point x="282.0" y="1080.0"/>
      <point x="234.0" y="1080.0" type="curve" smooth="yes"/>
      <point x="186.0" y="1080.0"/>
      <point x="150.0" y="1044.0"/>
      <point x="150.0" y="996.0" type="curve" smooth="yes"/>
      <point x="150.0" y="948.0"/>
      <point x="186.0" y="912.0"/>
    </contour>
    <contour>
      <point x="786.0" y="912.0" type="curve" smooth="yes"/>
      <point x="834.0" y="912.0"/>
      <point x="870.0" y="948.0"/>
      <point x="870.0" y="996.0" type="curve" smooth="yes"/>
      <point x="870.0" y="1044.0"/>
      <point x="834.0" y="1080.0"/>
      <point x="786.0" y="1080.0" type="curve" smooth="yes"/>
      <point x="738.0" y="1080.0"/>
      <point x="702.0" y="1044.0"/>
      <point x="702.0" y="996.0" type="curve" smooth="yes"/>
      <point x="702.0" y="948.0"/>
      <point x="738.0" y="912.0"/>
    </contour>
  </outline>
</glyph>
<glyph name="el.lf" format="2">
  <advance width="690.0"/>
  <outline>
    <contour>
      <point x="100.5" y="0.0" type="line"/>
      <point x="245.5" y="0.0" type="line"/>
      <point x="490.0" y="472.0" type="line"/>
      <point x="460.5" y="458.5"/>
      <point x="431.0" y="452.5"/>
      <point x="397.0" y="452.5" type="curve" smooth="yes"/>
      <point x="302.0" y="452.5"/>
      <point x="231.0" y="526.0"/>
      <point x="231.0" y="618.5" type="curve" smooth="yes"/>
      <point x="231.0" y="702.5"/>
      <point x="289.0" y="769.5"/>
      <point x="367.5" y="782.5" type="curve"/>
      <point x="367.5" y="915.0" type="line"/>
      <point x="214.5" y="900.0"/>
      <point x="92.0" y="775.0"/>
      <point x="92.0" y="618.0" type="curve" smooth="yes"/>
      <point x="92.0" y="475.0"/>
      <point x="196.0" y="360.5"/>
      <point x="327.0" y="339.0" type="curve"/>
      <point x="314.0" y="398.5" type="line"/>
    </contour>
    <contour>
      <point x="312.0" y="0.0" type="line"/>
      <point x="632.5" y="0.0" type="line"/>
      <point x="632.5" y="129.0" type="line"/>
      <point x="378.0" y="129.0" type="line"/>
    </contour>
    <contour>
      <point x="574.5" y="638.5" type="curve"/>
      <point x="651.0" y="787.5" type="line"/>
      <point x="601.0" y="859.5"/>
      <point x="521.0" y="906.0"/>
      <point x="431.5" y="915.0" type="curve"/>
      <point x="431.5" y="782.0" type="line"/>
      <point x="502.0" y="769.0"/>
      <point x="557.0" y="712.0"/>
    </contour>
  </outline>
</glyph>
<glyph name="el.numr" format="2">
  <advance width="480.0"/>
  <outline>
    <contour>
      <point x="66.5" y="420.0" type="line"/>
      <point x="176.0" y="420.0" type="line"/>
      <point x="330.5" y="686.5" type="line"/>
      <point x="313.0" y="677.5"/>
      <point x="294.5" y="671.5"/>
      <point x="273.0" y="671.5" type="curve" smooth="yes"/>
      <point x="221.5" y="671.5"/>
      <point x="194.5" y="706.0"/>
      <point x="194.5" y="745.0" type="curve" smooth="yes"/>
      <point x="194.5" y="777.0"/>
      <point x="212.0" y="802.5"/>
      <point x="242.5" y="812.5" type="curve"/>
      <point x="242.5" y="913.0" type="line"/>
      <point x="150.5" y="901.5"/>
      <point x="84.0" y="833.0"/>
      <point x="84.0" y="747.0" type="curve" smooth="yes"/>
      <point x="84.0" y="669.5"/>
      <point x="137.0" y="607.0"/>
      <point x="214.0" y="591.5" type="curve"/>
      <point x="196.0" y="642.0" type="line"/>
    </contour>
    <contour>
      <point x="235.5" y="420.0" type="line"/>
      <point x="424.5" y="420.0" type="line"/>
      <point x="424.5" y="517.0" type="line"/>
      <point x="291.0" y="517.0" type="line"/>
    </contour>
    <contour>
      <point x="364.5" y="745.5" type="curve"/>
      <point x="421.5" y="844.0" type="line"/>
      <point x="395.0" y="879.0"/>
      <point x="351.0" y="905.0"/>
      <point x="298.5" y="913.0" type="curve"/>
      <point x="298.5" y="814.0" type="line"/>
      <point x="331.5" y="803.5"/>
      <point x="355.0" y="776.5"/>
    </contour>
  </outline>
</glyph>
<glyph name="endash.case" format="2">
  <advance width="720.0"/>
  <outline>
    <contour>
      <point x="55.0" y="390.0" type="line"/>
      <point x="665.0" y="390.0" type="line"/>
      <point x="665.0" y="510.0" type="line"/>
      <point x="55.0" y="510.0" type="line"/>
    </contour>
  </outline>
</glyph>
<glyph name="f_f" format="2">
  <advance width="840.0"/>
  <anchor x="220.0" y="0.0" name="bottom"/>
  <anchor x="364.0" y="960.0" name="top"/>
  <outline>
    <contour>
      <point x="30.0" y="486.0" type="line"/>
      <point x="810.0" y="486.0" type="line"/>
      <point x="810.0" y="600.0" type="line"/>
      <point x="677.5" y="600.0" type="line"/>
      <point x="677.5" y="763.5" type="line" smooth="yes"/>
      <point x="677.5" y="838.0"/>
      <point x="717.5" y="859.5"/>
      <point x="756.0" y="859.5" type="curve" smooth="yes"/>
      <point x="787.5" y="859.5"/>
      <point x="816.0" y="846.0"/>
      <point x="840.0" y="818.0" type="curve"/>
      <point x="870.0" y="941.0" type="line"/>
      <point x="835.5" y="963.0"/>
      <point x="791.5" y="972.0"/>
      <point x="749.0" y="972.0" type="curve" smooth="yes"/>
      <point x="634.0" y="972.0"/>
      <point x="542.5" y="899.5"/>
      <point x="542.5" y="762.5" type="curve" smooth="yes"/>
      <point x="542.5" y="600.0" type="line"/>
      <point x="287.5" y="600.0" type="line"/>
      <point x="287.5" y="763.5" type="line" smooth="yes"/>
      <point x="287.5" y="838.0"/>
      <point x="327.5" y="859.5"/>
      <point x="366.0" y="859.5" type="curve" smooth="yes"/>
      <point x="397.5" y="859.5"/>
      <point x="426.0" y="846.0"/>
      <point x="450.0" y="818.0" type="curve"/>
      <point x="480.0" y="941.0" type="line"/>
      <point x="445.5" y="963.0"/>
      <point x="401.5" y="972.0"/>
      <point x="359.0" y="972.0" type="curve" smooth="yes"/>
      <point x="244.0" y="972.0"/>
      <point x="152.5" y="899.5"/>
      <point x="152.5" y="762.5" type="curve" smooth="yes"/>
      <point x="152.5" y="600.0" type="line"/>
      <point x="30.0" y="600.0" type="line"/>
    </contour>
    <contour>
      <point x="149.5" y="0.0" type="line"/>
      <point x="290.5" y="0.0" type="line"/>
      <point x="290.5" y="432.0" type="line"/>
      <point x="149.5" y="432.0" type="line"/>
    </contour>
    <contour>
      <point x="539.5" y="0.0" type="line"/>
      <point x="680.5" y="0.0" type="line"/>
      <point x="680.5" y="432.0" type="line"/>
      <point x="539.5" y="432.0" type="line"/>
    </contour>
  </outline>
</glyph>
<glyph name="five.numr" format="2">
  <advance width="480.0"/>
  <outline>
    <contour>
      <point x="242.5" y="407.0" type="line"/>
      <point x="339.5" y="420.0"/>
      <point x="408.0" y="492.0"/>
      <point x="408.0" y="583.0" type="curve" smooth="yes"/>
      <point x="408.0" y="671.5"/>
      <point x="343.5" y="747.0"/>
      <point x="239.0" y="747.0" type="curve" smooth="yes"/>
      <point x="209.5" y="747.0"/>
      <point x="188.5" y="741.5"/>
      <point x="170.0" y="728.5" type="curve"/>
      <point x="211.0" y="692.0" type="line"/>
      <point x="211.0" y="900.0" type="line"/>
      <point x="119.0" y="900.0" type="line"/>
      <point x="119.0" y="624.0" type="line"/>
      <point x="143.0" y="650.0"/>
      <point x="171.5" y="665.5"/>
      <point x="210.0" y="665.5" type="curve" smooth="yes"/>
      <point x="264.5" y="665.5"/>
      <point x="299.0" y="630.0"/>
      <point x="299.0" y="585.0" type="curve" smooth="yes"/>
      <point x="299.0" y="550.0"/>
      <point x="278.0" y="521.5"/>
      <point x="242.5" y="510.5" type="curve"/>
    </contour>
    <contour>
      <point x="186.5" y="407.0" type="curve"/>
      <point x="186.5" y="508.0" type="line"/>
      <point x="144.5" y="517.5"/>
      <point x="116.5" y="549.0"/>
      <point x="108.5" y="586.0" type="curve"/>
      <point x="52.0" y="481.5" type="line"/>
      <point x="80.5" y="443.5"/>
      <point x="128.0" y="414.5"/>
    </contour>
    <contour>
      <point x="264.5" y="806.0" type="line"/>
      <point x="376.5" y="806.0" type="line"/>
      <point x="376.5" y="900.0" type="line"/>
      <point x="264.5" y="900.0" type="line"/>
    </contour>
  </outline>
</glyph>
<glyph name="four.numr" format="2">
  <advance width="480.0"/>
  <outline>
    <contour>
      <point x="12.0" y="528.0" type="line"/>
      <point x="123.5" y="528.0" type="line"/>
      <point x="320.0" y="900.0" type="line"/>
      <point x="205.0" y="900.0" type="line"/>
    </contour>
    <contour>
      <point x="272.0" y="420.0" type="line"/>
      <point x="374.0" y="420.0" type="line"/>
      <point x="374.0" y="528.0" type="line"/>
      <point x="438.0" y="528.0" type="line"/>
      <point x="438.0" y="617.0" type="line"/>
      <point x="373.0" y="617.0" type="line"/>
      <point x="373.0" y="758.0" type="line"/>
      <point x="276.0" y="704.5" type="line"/>
      <point x="276.0" y="614.0" type="line"/>
      <point x="227.5" y="614.0" type="line"/>
      <point x="182.0" y="528.0" type="line"/>
      <point x="272.0" y="528.0" type="line"/>
    </contour>
  </outline>
</glyph>
<glyph name="hookabovecomb.case" format="2">
  <anchor x="360.0" y="900.0" name="_top"/>
  <outline>
    <contour>
      <point x="314.0" y="984.0" type="curve"/>
      <point x="437.0" y="984.0" type="line"/>
      <point x="462.0" y="1013.5"/>
      <point x="486.0" y="1052.5"/>
      <point x="486.0" y="1101.5" type="curve" smooth="yes"/>
      <point x="486.0" y="1179.0"/>
      <point x="422.5" y="1226.0"/>
      <point x="337.5" y="1226.0" type="curve" smooth="yes"/>
      <point x="288.5" y="1226.0"/>
      <point x="240.0" y="1211.0"/>
      <point x="213.5" y="1189.0" type="curve"/>
      <point x="241.5" y="1080.5" type="line"/>
      <point x="256.5" y="1099.5"/>
      <point x="281.0" y="1117.5"/>
      <point x="311.0" y="1117.5" type="curve" smooth="yes"/>
      <point x="343.5" y="1117.5"/>
      <point x="363.0" y="1098.5"/>
      <point x="363.0" y="1072.0" type="curve" smooth="yes"/>
      <point x="363.0" y="1048.5"/>
      <point x="345.5" y="1020.0"/>
    </contour>
  </outline>
</glyph>
<glyph name="hyphen.titl.case" format="2">
  <advance width="360.0"/>
  <outline>
    <contour>
      <point x="30.0" y="419.5" type="line"/>
      <point x="330.0" y="419.5" type="line"/>
      <point x="330.0" y="480.5" type="line"/>
      <point x="30.0" y="480.5" type="line"/>
    </contour>
  </outline>
</glyph>
<glyph name="l.lslash" format="2">
  <advance width="305.0"/>
  <anchor x="152.5" y="0.0" name="bottom"/>
  <anchor x="152.5" y="480.0" name="center"/>
  <anchor x="362.5" y="420.0" name="periodcentered"/>
  <anchor x="152.5" y="960.0" name="top"/>
  <anchor x="223.0" y="960.0" name="topright"/>
  <outline>
    <contour>
      <point x="82.0" y="399.0" type="line"/>
      <point x="223.0" y="491.5" type="line"/>
      <point x="223.0" y="960.0" type="line"/>
      <point x="82.0" y="960.0" type="line"/>
    </contour>
    <contour>
      <point x="169.0" y="204.0" type="line"/>
      <point x="136.0" y="147.0" type="line"/>
      <point x="136.0" y="197.5" type="line"/>
      <point x="169.0" y="162.0" type="line"/>
    </contour>
  </outline>
</glyph>
<glyph name="minus.titl" format="2">
  <advance width="750.0"/>
  <outline>
    <contour>
      <point x="90.0" y="417.5" type="line"/>
      <point x="660.0" y="417.5" type="line"/>
      <point x="660.0" y="482.5" type="line"/>
      <point x="90.0" y="482.5" type="line"/>
    </contour>
  </outline>
</glyph>
<glyph name="ogonekcomb.a" format="2">
  <anchor x="403.0" y="0.0" name="_ogonek"/>
  <outline>
    <contour>
      <point x="463.5" y="-315.0" type="curve"/>
      <point x="489.5" y="-204.5" type="line"/>
      <point x="441.0" y="-204.0"/>
      <point x="405.5" y="-180.5"/>
      <point x="405.5" y="-125.0" type="curve" smooth="yes"/>
      <point x="405.5" y="-99.0"/>
      <point x="413.0" y="-76.5"/>
      <point x="426.0" y="-54.0" type="curve"/>
      <point x="306.5" y="-54.0" type="line"/>
      <point x="289.5" y="-86.0"/>
      <point x="280.5" y="-119.0"/>
      <point x="280.5" y="-153.0" type="curve" smooth="yes"/>
      <point x="280.5" y="-260.0"/>
      <point x="362.0" y="-315.0"/>
    </contour>
  </outline>
</glyph>
<glyph name="one.numr" format="2">
  <advance width="480.0"/>
  <outline>
    <contour>
      <point x="105.0" y="701.0" type="line"/>
      <point x="333.0" y="815.0" type="line"/>
      <point x="333.0" y="926.0" type="line"/>
      <point x="105.0" y="812.0" type="line"/>
    </contour>
    <contour>
      <point x="219.0" y="420.0" type="line"/>
      <point x="333.0" y="420.0" type="line"/>
      <point x="333.0" y="757.0" type="line"/>
      <point x="219.0" y="700.0" type="line"/>
    </contour>
  </outline>
</glyph>
<glyph name="registered.lf" format="2">
  <advance width="1260.0"/>
  <outline>
    <contour>
      <point x="662.0" y="-191.0" type="line"/>
      <point x="955.0" y="-176.0"/>
      <point x="1188.0" y="65.0"/>
      <point x="1188.0" y="360.0" type="curve" smooth="yes"/>
      <point x="1188.0" y="655.0"/>
      <point x="955.0" y="896.0"/>
      <point x="662.0" y="911.0" type="curve"/>
      <point x="662.0" y="800.0" type="line"/>
      <point x="890.5" y="785.0"/>
      <point x="1071.0" y="593.5"/>
      <point x="1071.0" y="360.0" type="curve" smooth="yes"/>
      <point x="1071.0" y="126.5"/>
      <point x="890.5" y="-65.0"/>
      <point x="662.0" y="-80.0" type="curve"/>
    </contour>
    <contour>
      <point x="598.0" y="-191.0" type="curve"/>
      <point x="598.0" y="-80.0" type="line"/>
      <point x="369.5" y="-64.5"/>
      <point x="189.0" y="126.5"/>
      <point x="189.0" y="360.0" type="curve" smooth="yes"/>
      <point x="189.0" y="593.5"/>
      <point x="369.5" y="784.0"/>
      <point x="598.0" y="800.0" type="curve"/>
      <point x="598.0" y="911.0" type="line"/>
      <point x="305.0" y="896.0"/>
      <point x="72.0" y="655.0"/>
      <point x="72.0" y="360.0" type="curve" smooth="yes"/>
      <point x="72.0" y="65.0"/>
      <point x="305.0" y="-176.0"/>
    </contour>
    <contour>
      <point x="427.0" y="90.0" type="line"/>
      <point x="553.0" y="90.0" type="line"/>
      <point x="553.0" y="630.0" type="line"/>
      <point x="427.0" y="630.0" type="line"/>
    </contour>
    <contour>
      <point x="756.0" y="90.0" type="line"/>
      <point x="900.0" y="90.0" type="line"/>
      <point x="765.5" y="294.0" type="line"/>
      <point x="819.0" y="326.0"/>
      <point x="851.0" y="380.0"/>
      <point x="851.0" y="444.0" type="curve" smooth="yes"/>
      <point x="851.0" y="545.0"/>
      <point x="773.0" y="630.0"/>
      <point x="644.0" y="630.0" type="curve" smooth="yes"/>
      <point x="613.0" y="630.0" type="line"/>
      <point x="613.0" y="525.5" type="line"/>
      <point x="632.5" y="525.5" type="line" smooth="yes"/>
      <point x="689.0" y="525.5"/>
      <point x="725.0" y="492.5"/>
      <point x="725.0" y="444.0" type="curve" smooth="yes"/>
      <point x="725.0" y="402.5"/>
      <point x="696.0" y="360.5"/>
      <point x="632.5" y="360.5" type="curve" smooth="yes"/>
      <point x="613.0" y="360.5" type="line"/>
      <point x="613.0" y="261.0" type="line"/>
      <point x="644.0" y="261.0" type="line" smooth="yes"/>
      <point x="657.5" y="261.0"/>
      <point x="670.0" y="261.5"/>
      <point x="682.5" y="263.5" type="curve"/>
      <point x="628.5" y="285.5" type="line"/>
    </contour>
  </outline>
</glyph>
<glyph name="ringcomb.case" format="2">
  <anchor x="360.0" y="900.0" name="_top"/>
  <outline>
    <contour>
      <point x="197.0" y="1017.0" type="curve"/>
      <point x="288.5" y="1017.0" type="line"/>
      <point x="300.0" y="1046.0"/>
      <point x="327.5" y="1066.5"/>
      <point x="360.0" y="1066.5" type="curve" smooth="yes"/>
      <point x="391.5" y="1066.5"/>
      <point x="420.0" y="1046.0"/>
      <point x="431.0" y="1017.0" type="curve"/>
      <point x="523.0" y="1017.0" type="line"/>
      <point x="510.0" y="1095.5"/>
      <point x="441.5" y="1152.0"/>
      <point x="360.0" y="1152.0" type="curve" smooth="yes"/>
      <point x="277.5" y="1152.0"/>
      <point x="210.0" y="1095.5"/>
    </contour>
    <contour>
      <point x="360.0" y="828.0" type="curve" smooth="yes"/>
      <point x="441.5" y="828.0"/>
      <point x="510.0" y="885.0"/>
      <point x="523.0" y="963.0" type="curve"/>
      <point x="431.0" y="963.0" type="line"/>
      <point x="420.5" y="934.0"/>
      <point x="392.0" y="913.5"/>
      <point x="360.0" y="913.5" type="curve" smooth="yes"/>
      <point x="327.5" y="913.5"/>
      <point x="299.5" y="934.0"/>
      <point x="288.5" y="963.0" type="curve"/>
      <point x="197.0" y="963.0" type="line"/>
      <point x="210.0" y="885.0"/>
      <point x="277.5" y="828.0"/>
    </contour>
  </outline>
</glyph>
<glyph name="seven.lf" format="2">
  <advance width="690.0"/>
  <outline>
    <contour>
      <point x="68.5" y="0.0" type="line"/>
      <point x="228.5" y="0.0" type="line"/>
      <point x="662.5" y="900.0" type="line"/>
      <point x="507.5" y="900.0" type="line"/>
    </contour>
    <contour>
      <point x="46.5" y="768.0" type="line"/>
      <point x="374.0" y="768.0" type="line"/>
      <point x="438.5" y="900.0" type="line"/>
      <point x="46.5" y="900.0" type="line"/>
    </contour>
  </outline>
</glyph>
<glyph name="six.lf" format="2">
  <advance width="750.0"/>
  <outline>
    <contour>
      <point x="346.5" y="-15.0" type="curve"/>
      <point x="346.5" y="118.5" type="line"/>
      <point x="261.0" y="133.0"/>
      <point x="197.0" y="207.5"/>
      <point x="197.0" y="297.0" type="curve" smooth="yes"/>
      <point x="197.0" y="341.0"/>
      <point x="209.0" y="384.5"/>
      <point x="241.5" y="443.5" type="curve" smooth="yes"/>
      <point x="489.0" y="900.0" type="line"/>
      <point x="335.0" y="900.0" type="line"/>
      <point x="96.5" y="446.0" type="line" smooth="yes"/>
      <point x="71.5" y="398.0"/>
      <point x="57.0" y="347.5"/>
      <point x="57.0" y="293.5" type="curve" smooth="yes"/>
      <point x="57.0" y="129.5"/>
      <point x="182.5" y="-1.0"/>
    </contour>
    <contour>
      <point x="410.5" y="-15.0" type="line"/>
      <point x="574.0" y="0.0"/>
      <point x="699.0" y="129.5"/>
      <point x="699.0" y="295.0" type="curve" smooth="yes"/>
      <point x="699.0" y="473.0"/>
      <point x="561.5" y="593.0"/>
      <point x="393.5" y="598.5" type="curve"/>
      <point x="324.0" y="470.0" type="line"/>
      <point x="341.5" y="475.0"/>
      <point x="359.5" y="478.0"/>
      <point x="378.5" y="478.0" type="curve" smooth="yes"/>
      <point x="481.0" y="478.0"/>
      <point x="560.0" y="396.0"/>
      <point x="560.0" y="297.0" type="curve" smooth="yes"/>
      <point x="560.0" y="207.5"/>
      <point x="495.5" y="132.5"/>
      <point x="410.5" y="118.5" type="curve"/>
    </contour>
  </outline>
</glyph>
<glyph name="six.numr" format="2">
  <advance width="480.0"/>
  <outline>
    <contour>
      <point x="212.0" y="407.0" type="curve"/>
      <point x="212.0" y="505.5" type="line"/>
      <point x="177.0" y="517.5"/>
      <point x="154.5" y="548.5"/>
      <point x="154.5" y="584.5" type="curve" smooth="yes"/>
      <point x="154.5" y="603.5"/>
      <point x="158.5" y="619.5"/>
      <point x="173.5" y="648.0" type="curve" smooth="yes"/>
      <point x="305.5" y="900.0" type="line"/>
      <point x="193.0" y="900.0" type="line"/>
      <point x="70.5" y="672.0" type="line" smooth="yes"/>
      <point x="57.0" y="646.0"/>
      <point x="48.5" y="615.0"/>
      <point x="48.5" y="585.0" type="curve" smooth="yes"/>
      <point x="48.5" y="493.5"/>
      <point x="119.0" y="420.5"/>
    </contour>
    <contour>
      <point x="268.0" y="407.0" type="line"/>
      <point x="361.0" y="420.0"/>
      <point x="431.5" y="492.5"/>
      <point x="431.5" y="584.5" type="curve" smooth="yes"/>
      <point x="431.5" y="672.5"/>
      <point x="368.0" y="739.5"/>
      <point x="286.5" y="754.0" type="curve"/>
      <point x="242.0" y="671.0" type="line"/>
      <point x="295.5" y="668.5"/>
      <point x="325.5" y="626.0"/>
      <point x="325.5" y="584.5" type="curve" smooth="yes"/>
      <point x="325.5" y="548.5"/>
      <point x="302.0" y="517.5"/>
      <point x="268.0" y="505.5" type="curve"/>
    </contour>
  </outline>
</glyph>
<glyph name="strokeshortcomb.case" format="2">
  <anchor x="189.0" y="300.0" name="_center"/>
  <outline>
    <contour>
      <point x="30.0" y="247.5" type="line"/>
      <point x="510.0" y="247.5" type="line"/>
      <point x="510.0" y="352.5" type="line"/>
      <point x="30.0" y="352.5" type="line"/>
    </contour>
  </outline>
</glyph>
<glyph name="t_t" format="2">
  <advance width="850.0"/>
  <outline>
    <contour>
      <point x="27.0" y="486.0" type="line"/>
      <point x="823.0" y="486.0" type="line"/>
      <point x="823.0" y="600.0" type="line"/>
      <point x="687.5" y="600.0" type="line"/>
      <point x="687.5" y="800.0" type="line"/>
      <point x="552.5" y="800.0" type="line"/>
      <point x="552.5" y="600.0" type="line"/>
      <point x="287.5" y="600.0" type="line"/>
      <point x="287.5" y="800.0" type="line"/>
      <point x="152.5" y="800.0" type="line"/>
      <point x="152.5" y="600.0" type="line"/>
      <point x="27.0" y="600.0" type="line"/>
    </contour>
    <contour>
      <point x="149.5" y="0.0" type="line"/>
      <point x="290.5" y="0.0" type="line"/>
      <point x="290.5" y="432.0" type="line"/>
      <point x="149.5" y="432.0" type="line"/>
    </contour>
    <contour>
      <point x="549.5" y="0.0" type="line"/>
      <point x="690.5" y="0.0" type="line"/>
      <point x="690.5" y="432.0" type="line"/>
      <point x="549.5" y="432.0" type="line"/>
    </contour>
  </outline>
</glyph>
<glyph name="three.lf" format="2">
  <advance width="690.0"/>
  <outline>
    <contour>
      <point x="331.5" y="-15.0" type="line"/>
      <point x="493.5" y="0.0"/>
      <point x="624.0" y="129.5"/>
      <point x="624.0" y="295.0" type="curve" smooth="yes"/>
      <point x="624.0" y="436.5"/>
      <point x="527.5" y="548.5"/>
      <point x="403.0" y="583.0" type="curve"/>
      <point x="573.0" y="900.0" type="line"/>
      <point x="426.5" y="900.0" type="line"/>
      <point x="195.0" y="450.5" type="line"/>
      <point x="227.5" y="468.0"/>
      <point x="261.5" y="478.0"/>
      <point x="300.0" y="478.0" type="curve" smooth="yes"/>
      <point x="406.5" y="478.0"/>
      <point x="485.0" y="397.0"/>
      <point x="485.0" y="297.5" type="curve" smooth="yes"/>
      <point x="485.0" y="206.0"/>
      <point x="419.0" y="131.5"/>
      <point x="331.5" y="118.0" type="curve"/>
    </contour>
    <contour>
      <point x="272.0" y="-15.0" type="curve"/>
      <point x="272.0" y="118.5" type="line"/>
      <point x="188.5" y="131.5"/>
      <point x="124.5" y="198.5"/>
      <point x="108.5" y="282.0" type="curve"/>
      <point x="30.0" y="127.0" type="line"/>
      <point x="81.5" y="47.5"/>
      <point x="169.5" y="-6.5"/>
    </contour>
    <contour>
      <point x="93.0" y="774.0" type="line"/>
      <point x="296.0" y="774.0" type="line"/>
      <point x="360.5" y="900.0" type="line"/>
      <point x="93.0" y="900.0" type="line"/>
    </contour>
  </outline>
</glyph>
<glyph name="two.lf" format="2">
  <advance width="690.0"/>
  <outline>
    <contour>
      <point x="72.5" y="0.0" type="line"/>
      <point x="227.0" y="0.0" type="line"/>
      <point x="550.5" y="463.5" type="line"/>
      <point x="598.5" y="532.5"/>
      <point x="618.5" y="585.0"/>
      <point x="618.5" y="645.5" type="curve" smooth="yes"/>
      <point x="618.5" y="786.5"/>
      <point x="507.5" y="900.5"/>
      <point x="368.5" y="915.0" type="curve"/>
      <point x="368.5" y="780.5" type="line"/>
      <point x="431.5" y="767.5"/>
      <point x="477.5" y="712.5"/>
      <point x="477.5" y="645.5" type="curve" smooth="yes"/>
      <point x="477.5" y="616.5"/>
      <point x="468.0" y="585.0"/>
      <point x="436.0" y="537.0" type="curve" smooth="yes"/>
    </contour>
    <contour>
      <point x="296.0" y="0.0" type="line"/>
      <point x="632.5" y="0.0" type="line"/>
      <point x="632.5" y="132.0" type="line"/>
      <point x="388.0" y="132.0" type="line"/>
    </contour>
    <contour>
      <point x="89.0" y="526.0" type="curve"/>
      <point x="255.5" y="526.0" type="line"/>
      <point x="215.5" y="559.0"/>
      <point x="195.5" y="600.5"/>
      <point x="195.5" y="645.5" type="curve" smooth="yes"/>
      <point x="195.5" y="712.5"/>
      <point x="241.5" y="768.0"/>
      <point x="304.5" y="781.0" type="curve"/>
      <point x="304.5" y="914.5" type="line"/>
      <point x="164.5" y="900.0"/>
      <point x="57.5" y="784.5"/>
      <point x="57.5" y="646.0" type="curve" smooth="yes"/>
      <point x="57.5" y="604.0"/>
      <point x="68.0" y="565.0"/>
    </contour>
  </outline>
</glyph>
<glyph name="zero.lf.ss01" format="2">
  <advance width="1060.0"/>
  <outline>
    <contour>
      <point x="564.0" y="-17.0" type="line"/>
      <point x="808.5" y="-1.0"/>
      <point x="1003.0" y="201.5"/>
      <point x="1003.0" y="450.0" type="curve" smooth="yes"/>
      <point x="1003.0" y="698.5"/>
      <point x="808.5" y="901.0"/>
      <point x="564.0" y="917.0" type="curve"/>
      <point x="564.0" y="775.5" type="line"/>
      <point x="726.0" y="759.5"/>
      <point x="850.0" y="620.5"/>
      <point x="850.0" y="450.0" type="curve" smooth="yes"/>
      <point x="850.0" y="279.5"/>
      <point x="726.0" y="140.5"/>
      <point x="564.0" y="124.5" type="curve"/>
    </contour>
    <contour>
      <point x="496.0" y="-17.0" type="curve"/>
      <point x="496.0" y="124.5" type="line"/>
      <point x="334.0" y="140.5"/>
      <point x="210.0" y="280.0"/>
      <point x="210.0" y="450.0" type="curve" smooth="yes"/>
      <point x="210.0" y="620.0"/>
      <point x="334.0" y="759.5"/>
      <point x="496.0" y="775.5" type="curve"/>
      <point x="496.0" y="917.0" type="line"/>
      <point x="251.5" y="901.0"/>
      <point x="57.0" y="698.5"/>
      <point x="57.0" y="450.0" type="curve" smooth="yes"/>
      <point x="57.0" y="201.5"/>
      <point x="251.5" y="-1.0"/>
    </contour>
  </outline>
</glyph>
